<?xml version="1.0" encoding="utf-8"?>
<!-- Generator: Adobe Illustrator 22.0.1, SVG Export Plug-In . SVG Version: 6.00 Build 0)  -->
<svg version="1.1" id="Layer_1" xmlns="http://www.w3.org/2000/svg" xmlns:xlink="http://www.w3.org/1999/xlink" x="0px" y="0px"
	 viewBox="40 0 486.9 141.7" style="enable-background:new 0 0 566.9 141.7;" xml:space="preserve">
<style type="text/css">
	.st0{fill:#0F206C;}
	.st1{fill:#00829B;}
	.st2{fill:#34276A;}
	.st3{fill:#34276B;}
	.st4{fill:#34286B;}
	.st5{fill:#34296B;}
	.st6{fill:#33296B;}
	.st7{fill:#332A6C;}
	.st8{fill:#332B6C;}
	.st9{fill:#322C6D;}
	.st10{fill:#322D6D;}
	.st11{fill:#312D6D;}
	.st12{fill:#312E6E;}
	.st13{fill:#312F6E;}
	.st14{fill:#302F6E;}
	.st15{fill:#30306E;}
	.st16{fill:#30306F;}
	.st17{fill:#30316F;}
	.st18{fill:#2F316F;}
	.st19{fill:#2F326F;}
	.st20{fill:#2F3270;}
	.st21{fill:#2E3370;}
	.st22{fill:#2E3470;}
	.st23{fill:#2D3471;}
	.st24{fill:#2D3571;}
	.st25{fill:#2C3671;}
	.st26{fill:#2C3672;}
	.st27{fill:#2C3772;}
	.st28{fill:#2B3772;}
	.st29{fill:#2B3872;}
	.st30{fill:#2B3873;}
	.st31{fill:#2A3973;}
	.st32{fill:#293A73;}
	.st33{fill:#293A74;}
	.st34{fill:#293B74;}
	.st35{fill:#283B74;}
	.st36{fill:#283C74;}
	.st37{fill:#273C75;}
	.st38{fill:#273D75;}
	.st39{fill:#263D75;}
	.st40{fill:#263E76;}
	.st41{fill:#253E76;}
	.st42{fill:#253F76;}
	.st43{fill:#243F76;}
	.st44{fill:#244077;}
	.st45{fill:#234077;}
	.st46{fill:#234177;}
	.st47{fill:#224178;}
	.st48{fill:#214278;}
	.st49{fill:#204378;}
	.st50{fill:#204379;}
	.st51{fill:#1F4479;}
	.st52{fill:#1E4479;}
	.st53{fill:#1E457A;}
	.st54{fill:#1D457A;}
	.st55{fill:#1C467A;}
	.st56{fill:#1B467A;}
	.st57{fill:#1B477B;}
	.st58{fill:#1A477B;}
	.st59{fill:#19487B;}
	.st60{fill:#18487C;}
	.st61{fill:#17497C;}
	.st62{fill:#16497C;}
	.st63{fill:#154A7C;}
	.st64{fill:#144A7D;}
	.st65{fill:#134B7D;}
	.st66{fill:#124B7D;}
	.st67{fill:#114C7D;}
	.st68{fill:#104C7E;}
	.st69{fill:#0F4D7E;}
	.st70{fill:#0D4D7E;}
	.st71{fill:#0C4E7F;}
	.st72{fill:#0A4E7F;}
	.st73{fill:#084F7F;}
	.st74{fill:#064F7F;}
	.st75{fill:#045080;}
	.st76{fill:#025080;}
	.st77{fill:#015180;}
	.st78{fill:#005180;}
	.st79{fill:#005281;}
	.st80{fill:#005381;}
	.st81{fill:#005382;}
	.st82{fill:#005482;}
	.st83{fill:#005583;}
	.st84{fill:#005683;}
	.st85{fill:#005784;}
	.st86{fill:#005884;}
	.st87{fill:#005985;}
	.st88{fill:#005A85;}
	.st89{fill:#005A86;}
	.st90{fill:#005B86;}
	.st91{fill:#005C86;}
	.st92{fill:#005C87;}
	.st93{fill:#005D87;}
	.st94{fill:#005E87;}
	.st95{fill:#005E88;}
	.st96{fill:#005F88;}
	.st97{fill:#006088;}
	.st98{fill:#006089;}
	.st99{fill:#006189;}
	.st100{fill:#00628A;}
	.st101{fill:#00638A;}
	.st102{fill:#00648B;}
	.st103{fill:#00658B;}
	.st104{fill:#00658C;}
	.st105{fill:#00668C;}
	.st106{fill:#00678C;}
	.st107{fill:#00678D;}
	.st108{fill:#00688D;}
	.st109{fill:#00698D;}
	.st110{fill:#00698E;}
	.st111{fill:#006A8E;}
	.st112{fill:#006B8F;}
	.st113{fill:#006C8F;}
	.st114{fill:#006D90;}
	.st115{fill:#006E90;}
	.st116{fill:#006E91;}
	.st117{fill:#006F91;}
	.st118{fill:#007091;}
	.st119{fill:#007092;}
	.st120{fill:#007192;}
	.st121{fill:#007292;}
	.st122{fill:#007293;}
	.st123{fill:#007393;}
	.st124{fill:#007493;}
	.st125{fill:#007494;}
	.st126{fill:#007594;}
	.st127{fill:#007695;}
	.st128{fill:#007795;}
	.st129{fill:#007896;}
	.st130{fill:#007996;}
	.st131{fill:#007A96;}
	.st132{fill:#007A97;}
	.st133{fill:#007B97;}
	.st134{fill:#007C98;}
	.st135{fill:#007D98;}
	.st136{fill:#007E99;}
	.st137{fill:#007F99;}
	.st138{fill:#00809A;}
	.st139{fill:#00819A;}
	.st140{fill:#00839B;}
	.st141{fill:#284D74;}
	.st142{fill:#274E75;}
	.st143{fill:#264E75;}
	.st144{fill:#264F75;}
	.st145{fill:#254F76;}
	.st146{fill:#245076;}
	.st147{fill:#235076;}
	.st148{fill:#235177;}
	.st149{fill:#225177;}
	.st150{fill:#215277;}
	.st151{fill:#205278;}
	.st152{fill:#1F5378;}
	.st153{fill:#1E5378;}
	.st154{fill:#1D5479;}
	.st155{fill:#1C5479;}
	.st156{fill:#1B5579;}
	.st157{fill:#1A557A;}
	.st158{fill:#19567A;}
	.st159{fill:#18567A;}
	.st160{fill:#17577B;}
	.st161{fill:#15577B;}
	.st162{fill:#14587B;}
	.st163{fill:#12587C;}
	.st164{fill:#11587C;}
	.st165{fill:#0F597C;}
	.st166{fill:#0D597D;}
	.st167{fill:#0B5A7D;}
	.st168{fill:#095A7D;}
	.st169{fill:#065B7E;}
	.st170{fill:#045B7E;}
	.st171{fill:#015C7F;}
	.st172{fill:#005C7F;}
	.st173{fill:#005D7F;}
	.st174{fill:#005D80;}
	.st175{fill:#005E80;}
	.st176{fill:#005F81;}
	.st177{fill:#006081;}
	.st178{fill:#006082;}
	.st179{fill:#006182;}
	.st180{fill:#006283;}
	.st181{fill:#006383;}
	.st182{fill:#006384;}
	.st183{fill:#006484;}
	.st184{fill:#006485;}
	.st185{fill:#006585;}
	.st186{fill:#006686;}
	.st187{fill:#006787;}
	.st188{fill:#006887;}
	.st189{fill:#006888;}
	.st190{fill:#006988;}
	.st191{fill:#006A89;}
	.st192{fill:#006B8A;}
	.st193{fill:#006C8A;}
	.st194{fill:#006C8B;}
	.st195{fill:#006D8B;}
	.st196{fill:#006E8C;}
	.st197{fill:#006F8C;}
	.st198{fill:#006F8D;}
	.st199{fill:#00708D;}
	.st200{fill:#00718E;}
	.st201{fill:#00728E;}
	.st202{fill:#00728F;}
	.st203{fill:#00738F;}
	.st204{fill:#007390;}
	.st205{fill:#007490;}
	.st206{fill:#007591;}
	.st207{fill:#007691;}
	.st208{fill:#007692;}
	.st209{fill:#007792;}
	.st210{fill:#007893;}
	.st211{fill:#007994;}
	.st212{fill:#007A94;}
	.st213{fill:#007A95;}
	.st214{fill:#007B95;}
	.st215{fill:#007C96;}
	.st216{fill:#007D96;}
	.st217{fill:#007D97;}
	.st218{fill:#007E97;}
	.st219{fill:#007E98;}
	.st220{fill:#007F98;}
	.st221{fill:#008099;}
	.st222{fill:#008199;}
	.st223{fill:#00829A;}
	.st224{fill:#283B8A;}
	.st225{fill:#283C8A;}
	.st226{fill:#273C8A;}
	.st227{fill:#273D8A;}
	.st228{fill:#263D8A;}
	.st229{fill:#263E8B;}
	.st230{fill:#253E8B;}
	.st231{fill:#243F8B;}
	.st232{fill:#23408B;}
	.st233{fill:#22418C;}
	.st234{fill:#21428C;}
	.st235{fill:#20438C;}
	.st236{fill:#1F438C;}
	.st237{fill:#1E448D;}
	.st238{fill:#1D458D;}
	.st239{fill:#1C458D;}
	.st240{fill:#1B468E;}
	.st241{fill:#1A468E;}
	.st242{fill:#19478E;}
	.st243{fill:#18478E;}
	.st244{fill:#17488E;}
	.st245{fill:#16498F;}
	.st246{fill:#15498F;}
	.st247{fill:#144A8F;}
	.st248{fill:#134A8F;}
	.st249{fill:#124B8F;}
	.st250{fill:#104B90;}
	.st251{fill:#0F4C90;}
	.st252{fill:#0D4C90;}
	.st253{fill:#0C4D90;}
	.st254{fill:#0A4D90;}
	.st255{fill:#084E90;}
	.st256{fill:#064E91;}
	.st257{fill:#044F91;}
	.st258{fill:#024F91;}
	.st259{fill:#005091;}
	.st260{fill:#005192;}
	.st261{fill:#005292;}
	.st262{fill:#005392;}
	.st263{fill:#005393;}
	.st264{fill:#005493;}
	.st265{fill:#005593;}
	.st266{fill:#005693;}
	.st267{fill:#005794;}
	.st268{fill:#005894;}
	.st269{fill:#005994;}
	.st270{fill:#005A94;}
	.st271{fill:#005A95;}
	.st272{fill:#005B95;}
	.st273{fill:#005C95;}
	.st274{fill:#005D96;}
	.st275{fill:#005E96;}
	.st276{fill:#005F96;}
	.st277{fill:#006096;}
	.st278{fill:#006197;}
	.st279{fill:#006297;}
	.st280{fill:#006397;}
	.st281{fill:#006497;}
	.st282{fill:#006498;}
	.st283{fill:#006598;}
	.st284{fill:#006698;}
	.st285{fill:#006798;}
	.st286{fill:#006898;}
	.st287{fill:#006899;}
	.st288{fill:#006999;}
	.st289{fill:#006A99;}
	.st290{fill:#006B99;}
	.st291{fill:#006C99;}
	.st292{fill:#006D99;}
	.st293{fill:#006E9A;}
	.st294{fill:#006F9A;}
	.st295{fill:#00709A;}
	.st296{fill:#00719A;}
	.st297{fill:#00729A;}
	.st298{fill:#00739A;}
	.st299{fill:#00739B;}
	.st300{fill:#00749B;}
	.st301{fill:#00759B;}
	.st302{fill:#00769B;}
	.st303{fill:#00779B;}
	.st304{fill:#00789B;}
	.st305{fill:#00799B;}
	.st306{fill:#007A9B;}
	.st307{fill:#007B9B;}
	.st308{fill:#007C9B;}
	.st309{fill:#007D9B;}
	.st310{fill:#007E9B;}
	.st311{fill:#007F9B;}
	.st312{fill:#00809B;}
	.st313{fill:#00819B;}
</style>
<g>
	<path class="st0" d="M363.4,65.2c0-2.4,0.6-4.5,1.9-6.4c1.3-1.9,3.1-3.4,5.3-4.5c2.3-1.1,4.8-1.7,7.5-1.7c4.7,0,8.5,1.4,11.4,4.1
		c2.9,2.7,4.3,6.7,4.3,12.1v29.5h10.1V68.7c0-5.3-1-9.9-3.1-13.6c-2-3.8-4.9-6.7-8.5-8.6c-3.6-2-7.7-3-12.2-3
		c-3.3,0-6.4,0.6-9.3,1.7c-2.9,1.1-5.4,2.8-7.5,4.9V49c0-1.5-0.5-2.7-1.4-3.6c-0.9-0.9-2.1-1.4-3.6-1.4c-1.4,0-2.6,0.5-3.6,1.4
		c-1,0.9-1.4,2.1-1.4,3.6v49.2h10.1V65.2z"/>
	<path class="st1" d="M273.7,73.2c-0.9,0.8-1.9,1.2-3.3,1.2H233c0.7,4.6,2.8,8.3,6.3,11.1c3.4,2.8,7.7,4.2,12.7,4.2
		c2,0,4-0.4,6.2-1.1c2.1-0.7,3.9-1.6,5.3-2.7c0.9-0.7,2-1.1,3.3-1.1c1.2,0,2.2,0.3,3,1c1.2,1,1.8,2.1,1.8,3.3c0,1.2-0.5,2.2-1.6,3
		c-2.2,1.8-5,3.2-8.3,4.3c-3.3,1.1-6.5,1.7-9.5,1.7c-5.4,0-10.2-1.2-14.5-3.5c-4.3-2.3-7.6-5.6-10-9.7c-2.4-4.1-3.6-8.8-3.6-14.1
		c0-5.3,1.1-10,3.4-14.1c2.3-4.2,5.4-7.4,9.5-9.8c4-2.3,8.6-3.5,13.7-3.5c5.1,0,9.4,1.1,13.1,3.3c3.7,2.2,6.5,5.4,8.5,9.4
		c2,4,3,8.6,3,13.8C275,71.3,274.5,72.4,273.7,73.2z M238.8,56c-3,2.6-4.9,6.1-5.7,10.5h32.8c-0.6-4.4-2.2-7.9-4.9-10.5
		c-2.7-2.6-6.2-3.9-10.5-3.9C245.6,52,241.7,53.4,238.8,56z"/>
	<path class="st0" d="M465.6,73.2c-0.9,0.8-1.9,1.2-3.3,1.2h-37.4c0.7,4.6,2.8,8.3,6.3,11.1c3.4,2.8,7.7,4.2,12.7,4.2
		c2,0,4-0.4,6.2-1.1c2.1-0.7,3.9-1.6,5.3-2.7c0.9-0.7,2-1.1,3.3-1.1c1.2,0,2.2,0.3,3,1c1.2,1,1.8,2.1,1.8,3.3c0,1.2-0.5,2.2-1.6,3
		c-2.2,1.8-5,3.2-8.3,4.3c-3.3,1.1-6.5,1.7-9.5,1.7c-5.4,0-10.2-1.2-14.5-3.5c-4.3-2.3-7.6-5.6-10-9.7c-2.4-4.1-3.6-8.8-3.6-14.1
		c0-5.3,1.1-10,3.4-14.1c2.3-4.2,5.4-7.4,9.5-9.8c4-2.3,8.6-3.5,13.7-3.5c5.1,0,9.4,1.1,13.1,3.3c3.7,2.2,6.5,5.4,8.5,9.4
		c2,4,3,8.6,3,13.8C466.9,71.3,466.5,72.4,465.6,73.2z M430.7,56c-3,2.6-4.9,6.1-5.7,10.5h32.8c-0.6-4.4-2.2-7.9-4.9-10.5
		c-2.7-2.6-6.2-3.9-10.5-3.9C437.6,52,433.7,53.4,430.7,56z"/>
	<path class="st0" d="M519.5,93.7c0,1.2-0.4,2.2-1.2,3c-0.8,0.8-1.9,1.2-3.2,1.2c-1.6,0-2.8-0.5-3.5-1.6l-15.7-18.7L481,96.3
		c-1,1.1-2.2,1.6-3.5,1.6c-1.3,0-2.3-0.4-3.1-1.2s-1.1-1.8-1.1-3c0-1.3,0.5-2.5,1.4-3.6L489.9,71l-16.3-19.2c-1-1.2-1.5-2.4-1.5-3.7
		c0-1.1,0.4-2.1,1.1-2.9s1.8-1.2,3.2-1.2c1.6,0,2.8,0.6,3.7,1.7L496.4,65l14.5-19.3c0.9-1.1,2.1-1.7,3.6-1.7c1.3,0,2.3,0.4,3.1,1.2
		c0.8,0.8,1.1,1.8,1.1,3c0,1.4-0.5,2.8-1.4,3.9l-14.9,19.4l15.7,18.7C519.1,91.3,519.5,92.4,519.5,93.7z"/>
	<path class="st1" d="M171.4,65.2c0-2.4,0.6-4.5,1.9-6.4c1.3-1.9,3.1-3.4,5.3-4.5c2.3-1.1,4.8-1.7,7.5-1.7c4.7,0,8.5,1.4,11.4,4.1
		c2.9,2.7,4.3,6.7,4.3,12.1v29.5h10.1V68.7c0-5.3-1-9.9-3.1-13.6c-2-3.8-4.9-6.7-8.5-8.6s-7.7-3-12.2-3c-3.3,0-6.4,0.6-9.3,1.7
		c-2.9,1.1-5.4,2.8-7.5,4.9V49c0-1.5-0.5-2.7-1.4-3.6c-0.9-0.9-2.1-1.4-3.6-1.4c-1.4,0-2.6,0.5-3.6,1.4c-1,0.9-1.4,2.1-1.4,3.6v49.2
		h10.1V65.2z"/>
	<path class="st1" d="M327.8,98.2h10.1V71c0-5.1-1.2-9.8-3.6-13.9c-2.4-4.2-5.7-7.5-9.8-9.9c-4.1-2.4-8.7-3.6-13.7-3.6
		c-5.1,0-9.7,1.2-13.8,3.6c-4.2,2.4-7.4,5.7-9.8,9.9c-2.4,4.2-3.5,8.8-3.5,13.9c0,5.1,1.1,9.8,3.3,13.9c2.2,4.2,5.2,7.4,9.1,9.8
		c3.8,2.4,8.1,3.5,12.9,3.5c3.8,0,7.4-0.8,10.6-2.4c3.3-1.6,6.1-3.8,8.4-6.6V98.2z M325.9,80.4c-1.5,2.8-3.6,5-6.3,6.6
		c-2.7,1.6-5.6,2.4-8.9,2.4c-3.3,0-6.3-0.8-8.9-2.4c-2.7-1.6-4.8-3.8-6.3-6.6c-1.5-2.8-2.3-5.9-2.3-9.4c0-3.5,0.8-6.6,2.3-9.5
		c1.5-2.8,3.6-5,6.3-6.7c2.7-1.6,5.6-2.4,8.9-2.4c3.3,0,6.3,0.8,8.9,2.4c2.7,1.6,4.7,3.8,6.3,6.7c1.5,2.8,2.3,6,2.3,9.5
		C328.2,74.4,327.4,77.6,325.9,80.4z"/>
	<g>
		<path class="st2" d="M52.6,54.7L52.6,54.7c-2.9,0-5.2-2.4-5.2-5.2v0c0-2.9,2.4-5.2,5.2-5.2h0c2.9,0,5.2,2.4,5.2,5.2v0
			C57.9,52.3,55.5,54.7,52.6,54.7z"/>
		<path class="st3" d="M52.9,54.7L52.9,54.7c-2.9,0-5.2-2.4-5.2-5.2v0c0-2.9,2.4-5.2,5.2-5.2h0c2.9,0,5.2,2.4,5.2,5.2v0
			c0,1.4-0.6,2.8-1.5,3.7C55.7,54.1,54.4,54.7,52.9,54.7z"/>
		<path class="st4" d="M53.3,54.7L53.3,54.7c-2.9,0-5.2-2.4-5.2-5.2v-0.1c0-2.8,2.4-5.2,5.2-5.2h0.1c2.8,0,5.2,2.4,5.2,5.2v0
			c0,1.4-0.6,2.8-1.5,3.7C56,54.1,54.7,54.7,53.3,54.7z"/>
		<path class="st4" d="M53.6,54.7L53.6,54.7c-2.9,0-5.2-2.4-5.2-5.2v-0.1c0-2.8,2.4-5.2,5.2-5.2h0.1c2.8,0,5.2,2.4,5.2,5.2v0
			c0,1.4-0.6,2.8-1.5,3.7S55,54.7,53.6,54.7z"/>
		<path class="st5" d="M53.9,54.7h-0.1c-2.8,0-5.1-2.4-5.1-5.2v-0.1c0-2.8,2.4-5.1,5.2-5.1H54c2.8,0,5.1,2.4,5.1,5.2v0
			c0,1.4-0.6,2.8-1.5,3.7S55.3,54.7,53.9,54.7z"/>
		<path class="st6" d="M54.2,54.7h-0.1c-2.8,0-5.1-2.4-5.1-5.2v-0.1c0-2.8,2.4-5.1,5.2-5.1h0.1c2.8,0,5.1,2.4,5.1,5.2v0
			c0,1.4-0.6,2.8-1.5,3.7S55.6,54.7,54.2,54.7z"/>
		<path class="st7" d="M54.6,54.7h-0.2c-2.8,0-5.1-2.4-5.1-5.2v-0.2c0-2.8,2.4-5.1,5.2-5.1h0.2c2.8,0,5.1,2.4,5.1,5.2v0
			c0,1.4-0.6,2.8-1.5,3.7C57.4,54.1,56,54.7,54.6,54.7z"/>
		<path class="st7" d="M54.9,54.7h-0.2c-2.8,0-5.1-2.5-5.1-5.2v-0.2c0-2.8,2.5-5.1,5.2-5.1h0.2c2.8,0,5.1,2.5,5.1,5.2v0
			c0,1.4-0.6,2.8-1.5,3.7C57.7,54.1,56.3,54.7,54.9,54.7z"/>
		<path class="st8" d="M55.2,54.7H55c-2.8,0-5-2.5-5-5.2v-0.2c0-2.8,2.5-5,5.2-5h0.2c2.8,0,5,2.5,5,5.2v0c0,1.4-0.6,2.8-1.5,3.8
			S56.6,54.7,55.2,54.7z"/>
		<path class="st8" d="M55.5,54.7h-0.2c-2.7,0-5-2.5-5-5.2v-0.2c0-2.7,2.5-5,5.2-5h0.2c2.7,0,5,2.5,5,5.2v0c0,1.4-0.6,2.9-1.5,3.8
			S56.9,54.7,55.5,54.7z"/>
		<path class="st9" d="M55.8,54.7h-0.3c-2.7,0-5-2.5-5-5.2v-0.3c0-2.7,2.5-5,5.2-5h0.3c2.7,0,5,2.5,5,5.2v0c0,1.4-0.6,2.9-1.5,3.8
			S57.2,54.7,55.8,54.7z"/>
		<path class="st9" d="M56.2,54.7h-0.3c-2.7,0-4.9-2.5-4.9-5.2v-0.3c0-2.7,2.5-4.9,5.2-4.9h0.3c2.7,0,4.9,2.5,4.9,5.2v0
			c0,1.4-0.6,2.9-1.5,3.8S57.5,54.7,56.2,54.7z"/>
		<path class="st10" d="M56.5,54.7h-0.3c-2.7,0-4.9-2.5-4.9-5.2v-0.3c0-2.7,2.5-4.9,5.2-4.9h0.3c2.7,0,4.9,2.5,4.9,5.2v0
			c0,1.4-0.6,2.9-1.4,3.8S57.8,54.7,56.5,54.7z"/>
		<path class="st10" d="M56.8,54.7h-0.3c-2.7,0-4.9-2.5-4.9-5.2v-0.3c0-2.7,2.5-4.9,5.2-4.9h0.3c2.7,0,4.9,2.5,4.9,5.2v0
			c0,1.3-0.6,2.9-1.4,3.8S58.2,54.7,56.8,54.7z"/>
		<path class="st11" d="M57.1,54.7h-0.4c-2.7,0-4.9-2.6-4.9-5.2v-0.4c0-2.7,2.6-4.9,5.2-4.9h0.4c2.7,0,4.9,2.6,4.9,5.2v0
			c0,1.3-0.5,2.9-1.4,3.8C60.1,54.1,58.5,54.7,57.1,54.7z"/>
		<path class="st12" d="M57.5,54.7h-0.4c-2.7,0-4.8-2.6-4.8-5.2V49c0-2.7,2.6-4.8,5.2-4.8h0.4c2.7,0,4.8,2.6,4.8,5.2v0
			c0,1.3-0.5,2.9-1.4,3.8C60.4,54.1,58.8,54.7,57.5,54.7z"/>
		<path class="st12" d="M57.8,54.7h-0.4c-2.6,0-4.8-2.6-4.8-5.2V49c0-2.6,2.6-4.8,5.2-4.8h0.4c2.6,0,4.8,2.6,4.8,5.2v0
			c0,1.3-0.5,2.9-1.4,3.8C60.7,54.1,59.1,54.7,57.8,54.7z"/>
		<path class="st13" d="M58.1,54.7h-0.4c-2.6,0-4.8-2.6-4.8-5.2V49c0-2.6,2.6-4.8,5.2-4.8h0.4c2.6,0,4.8,2.6,4.8,5.2v0
			c0,1.3-0.5,3-1.4,3.8S59.4,54.7,58.1,54.7z"/>
		<path class="st14" d="M58.4,54.7H58c-2.6,0-4.8-2.6-4.8-5.2V49c0-2.6,2.6-4.8,5.2-4.8h0.5c2.6,0,4.8,2.6,4.8,5.2v0
			c0,1.3-0.5,3-1.4,3.8S59.7,54.7,58.4,54.7z"/>
		<path class="st15" d="M58.7,54.7h-0.5c-2.6,0-4.7-2.6-4.7-5.2v-0.5c0-2.6,2.6-4.7,5.2-4.7h0.5c2.6,0,4.7,2.6,4.7,5.2v0
			c0,1.3-0.5,3-1.4,3.8C61.7,54.1,60.1,54.7,58.7,54.7z"/>
		<path class="st16" d="M59.1,54.7h-0.5c-2.6,0-4.7-2.6-4.7-5.2v-0.5c0-2.6,2.6-4.7,5.2-4.7h0.5c2.6,0,4.7,2.6,4.7,5.2v0
			c0,1.3-0.5,3-1.4,3.8C62.1,54.1,60.4,54.7,59.1,54.7z"/>
		<path class="st17" d="M59.4,54.7h-0.5c-2.6,0-4.7-2.7-4.7-5.2v-0.5c0-2.6,2.7-4.7,5.2-4.7h0.5c2.6,0,4.7,2.7,4.7,5.2v0
			c0,1.3-0.5,3-1.4,3.9C62.4,54.1,60.7,54.7,59.4,54.7z"/>
		<path class="st18" d="M59.7,54.7h-0.6c-2.6,0-4.7-2.7-4.7-5.2v-0.6c0-2.6,2.7-4.7,5.2-4.7h0.6c2.6,0,4.7,2.7,4.7,5.2v0
			c0,1.3-0.5,3-1.4,3.9C62.7,54.1,61,54.7,59.7,54.7z"/>
		<path class="st19" d="M60,54.7h-0.6c-2.5,0-4.6-2.7-4.6-5.2v-0.6c0-2.5,2.7-4.6,5.2-4.6h0.6c2.5,0,4.6,2.7,4.6,5.2v0
			c0,1.3-0.5,3-1.4,3.9C63.1,54.1,61.3,54.7,60,54.7z"/>
		<path class="st19" d="M60.4,54.7h-0.6c-2.5,0-4.6-2.7-4.6-5.2v-0.6c0-2.5,2.7-4.6,5.2-4.6H61c2.5,0,4.6,2.7,4.6,5.2v0
			c0,1.3-0.5,3-1.4,3.9C63.4,54.1,61.6,54.7,60.4,54.7z"/>
		<path class="st20" d="M60.7,54.7H60c-2.5,0-4.6-2.7-4.6-5.2v-0.7c0-2.5,2.7-4.6,5.2-4.6h0.7c2.5,0,4.6,2.7,4.6,5.2v0
			c0,1.3-0.5,3.1-1.3,3.9S61.9,54.7,60.7,54.7z"/>
		<path class="st21" d="M61,54.7h-0.7c-2.5,0-4.6-2.7-4.6-5.2v-0.7c0-2.5,2.7-4.6,5.2-4.6h0.7c2.5,0,4.6,2.7,4.6,5.2v0
			c0,1.3-0.5,3.1-1.3,3.9C64.1,54.2,62.3,54.7,61,54.7z"/>
		<path class="st21" d="M61.3,54.7h-0.7c-2.5,0-4.5-2.7-4.5-5.2v-0.7c0-2.5,2.7-4.5,5.2-4.5H62c2.5,0,4.5,2.7,4.5,5.2v0
			c0,1.2-0.5,3.1-1.3,3.9C64.4,54.2,62.6,54.7,61.3,54.7z"/>
		<path class="st22" d="M61.6,54.7h-0.7c-2.5,0-4.5-2.8-4.5-5.2v-0.7c0-2.5,2.8-4.5,5.2-4.5h0.7c2.5,0,4.5,2.8,4.5,5.2v0
			c0,1.2-0.5,3.1-1.3,3.9C64.7,54.2,62.9,54.7,61.6,54.7z"/>
		<path class="st23" d="M62,54.7h-0.8c-2.5,0-4.5-2.8-4.5-5.2v-0.8c0-2.5,2.8-4.5,5.2-4.5h0.8c2.5,0,4.5,2.8,4.5,5.2v0
			c0,1.2-0.5,3.1-1.3,3.9C65.1,54.2,63.2,54.7,62,54.7z"/>
		<path class="st24" d="M62.3,54.7h-0.8c-2.4,0-4.5-2.8-4.5-5.2v-0.8c0-2.4,2.8-4.5,5.2-4.5h0.8c2.4,0,4.5,2.8,4.5,5.2v0
			c0,1.2-0.5,3.1-1.3,3.9C65.4,54.2,63.5,54.7,62.3,54.7z"/>
		<path class="st24" d="M62.6,54.7h-0.8c-2.4,0-4.4-2.8-4.4-5.2v-0.8c0-2.4,2.8-4.4,5.2-4.4h0.8c2.4,0,4.4,2.8,4.4,5.2v0
			c0,1.2-0.5,3.1-1.3,3.9C65.7,54.2,63.8,54.7,62.6,54.7z"/>
		<path class="st24" d="M62.9,54.7h-0.8c-2.4,0-4.4-2.8-4.4-5.2v-0.8c0-2.4,2.8-4.4,5.2-4.4h0.8c2.4,0,4.4,2.8,4.4,5.2v0
			c0,1.2-0.5,3.1-1.3,3.9C66.1,54.2,64.1,54.7,62.9,54.7z"/>
		<path class="st25" d="M63.3,54.7h-0.9c-2.4,0-4.4-2.8-4.4-5.2v-0.9c0-2.4,2.8-4.4,5.2-4.4h0.9c2.4,0,4.4,2.8,4.4,5.2v0
			c0,1.2-0.5,3.2-1.3,3.9C66.4,54.2,64.5,54.7,63.3,54.7z"/>
		<path class="st26" d="M63.6,54.7h-0.9c-2.4,0-4.3-2.8-4.3-5.2v-0.9c0-2.4,2.8-4.3,5.2-4.3h0.9c2.4,0,4.3,2.8,4.3,5.2v0
			c0,1.2-0.5,3.2-1.3,4C66.7,54.2,64.8,54.7,63.6,54.7z"/>
		<path class="st27" d="M63.9,54.7H63c-2.4,0-4.3-2.9-4.3-5.2v-0.9c0-2.4,2.9-4.3,5.2-4.3h0.9c2.4,0,4.3,2.9,4.3,5.2v0
			c0,1.2-0.5,3.2-1.3,4C67.1,54.2,65.1,54.7,63.9,54.7z"/>
		<path class="st28" d="M64.2,54.7h-0.9c-2.4,0-4.3-2.9-4.3-5.2v-0.9c0-2.4,2.9-4.3,5.2-4.3h0.9c2.4,0,4.3,2.9,4.3,5.2v0
			c0,1.2-0.5,3.2-1.3,4C67.4,54.2,65.4,54.7,64.2,54.7z"/>
		<path class="st29" d="M64.5,54.7h-1c-2.3,0-4.3-2.9-4.3-5.2v-1c0-2.3,2.9-4.3,5.2-4.3h1c2.3,0,4.3,2.9,4.3,5.2v0
			c0,1.2-0.5,3.2-1.3,4S65.7,54.7,64.5,54.7z"/>
		<path class="st30" d="M64.9,54.7h-1c-2.3,0-4.2-2.9-4.2-5.2v-1c0-2.3,2.9-4.2,5.2-4.2h1c2.3,0,4.2,2.9,4.2,5.2v0
			c0,1.2-0.5,3.2-1.2,4C68.1,54.2,66,54.7,64.9,54.7z"/>
		<path class="st31" d="M65.2,54.7h-1c-2.3,0-4.2-2.9-4.2-5.2v-1c0-2.3,2.9-4.2,5.2-4.2h1c2.3,0,4.2,2.9,4.2,5.2v0
			c0,1.2-0.5,3.2-1.2,4S66.4,54.7,65.2,54.7z"/>
		<path class="st31" d="M65.5,54.7h-1c-2.3,0-4.2-2.9-4.2-5.2v-1c0-2.3,2.9-4.2,5.2-4.2h1c2.3,0,4.2,2.9,4.2,5.2v0
			c0,1.2-0.5,3.2-1.2,4S66.7,54.7,65.5,54.7z"/>
		<path class="st32" d="M65.8,54.7h-1.1c-2.3,0-4.2-2.9-4.2-5.2v-1.1c0-2.3,2.9-4.2,5.2-4.2h1.1c2.3,0,4.2,2.9,4.2,5.2v0
			c0,1.1-0.5,3.3-1.2,4C69.1,54.2,67,54.7,65.8,54.7z"/>
		<path class="st33" d="M66.2,54.7h-1.1c-2.3,0-4.1-3-4.1-5.2v-1.1c0-2.3,3-4.1,5.2-4.1h1.1c2.3,0,4.1,3,4.1,5.2v0
			c0,1.1-0.5,3.3-1.2,4C69.4,54.2,67.3,54.7,66.2,54.7z"/>
		<path class="st34" d="M66.5,54.7h-1.1c-2.3,0-4.1-3-4.1-5.2v-1.1c0-2.3,3-4.1,5.2-4.1h1.1c2.3,0,4.1,3,4.1,5.2v0
			c0,1.1-0.5,3.3-1.2,4C69.8,54.2,67.6,54.7,66.5,54.7z"/>
		<path class="st35" d="M66.8,54.7h-1.1c-2.2,0-4.1-3-4.1-5.2v-1.1c0-2.2,3-4.1,5.2-4.1h1.1c2.2,0,4.1,3,4.1,5.2v0
			c0,1.1-0.5,3.3-1.2,4C70.1,54.2,67.9,54.7,66.8,54.7z"/>
		<path class="st36" d="M67.1,54.7H66c-2.2,0-4.1-3-4.1-5.2v-1.2c0-2.2,3-4.1,5.2-4.1h1.2c2.2,0,4.1,3,4.1,5.2v0
			c0,1.1-0.5,3.3-1.2,4C70.4,54.2,68.2,54.7,67.1,54.7z"/>
		<path class="st37" d="M67.4,54.7h-1.2c-2.2,0-4-3-4-5.2v-1.2c0-2.2,3-4,5.2-4h1.2c2.2,0,4,3,4,5.2v0c0,1.1-0.5,3.3-1.2,4
			C70.8,54.2,68.6,54.7,67.4,54.7z"/>
		<path class="st38" d="M67.8,54.7h-1.2c-2.2,0-4-3-4-5.2v-1.2c0-2.2,3-4,5.2-4H69c2.2,0,4,3,4,5.2v0c0,1.1-0.5,3.3-1.2,4.1
			C71.1,54.2,68.9,54.7,67.8,54.7z"/>
		<path class="st39" d="M68.1,54.7h-1.2c-2.2,0-4-3-4-5.2v-1.2c0-2.2,3-4,5.2-4h1.2c2.2,0,4,3,4,5.2v0c0,1.1-0.4,3.3-1.2,4.1
			C71.4,54.2,69.2,54.7,68.1,54.7z"/>
		<path class="st40" d="M68.4,54.7h-1.3c-2.2,0-4-3.1-4-5.2v-1.3c0-2.2,3.1-4,5.2-4h1.3c2.2,0,4,3.1,4,5.2v0c0,1.1-0.4,3.4-1.2,4.1
			C71.8,54.2,69.5,54.7,68.4,54.7z"/>
		<path class="st41" d="M68.7,54.7h-1.3c-2.2,0-3.9-3.1-3.9-5.2v-1.3c0-2.2,3.1-3.9,5.2-3.9H70c2.2,0,3.9,3.1,3.9,5.2v0
			c0,1.1-0.4,3.4-1.2,4.1C72.1,54.2,69.8,54.7,68.7,54.7z"/>
		<path class="st42" d="M69.1,54.7h-1.3c-2.1,0-3.9-3.1-3.9-5.2v-1.3c0-2.1,3.1-3.9,5.2-3.9h1.3c2.1,0,3.9,3.1,3.9,5.2v0
			c0,1.1-0.4,3.4-1.1,4.1C72.4,54.2,70.1,54.7,69.1,54.7z"/>
		<path class="st43" d="M69.4,54.7H68c-2.1,0-3.9-3.1-3.9-5.2v-1.4c0-2.1,3.1-3.9,5.2-3.9h1.4c2.1,0,3.9,3.1,3.9,5.2v0
			c0,1.1-0.4,3.4-1.1,4.1S70.4,54.7,69.4,54.7z"/>
		<path class="st44" d="M69.7,54.7h-1.4c-2.1,0-3.9-3.1-3.9-5.2v-1.4c0-2.1,3.1-3.9,5.2-3.9h1.4c2.1,0,3.9,3.1,3.9,5.2v0
			c0,1.1-0.4,3.4-1.1,4.1C73.1,54.2,70.8,54.7,69.7,54.7z"/>
		<path class="st45" d="M70,54.7h-1.4c-2.1,0-3.8-3.1-3.8-5.2V48c0-2.1,3.1-3.8,5.2-3.8h1.4c2.1,0,3.8,3.1,3.8,5.2v0
			c0,1.1-0.4,3.4-1.1,4.1C73.4,54.2,71.1,54.7,70,54.7z"/>
		<path class="st46" d="M70.3,54.7h-1.4c-2.1,0-3.8-3.1-3.8-5.2V48c0-2.1,3.1-3.8,5.2-3.8h1.4c2.1,0,3.8,3.1,3.8,5.2v0
			c0,1-0.4,3.4-1.1,4.1C73.8,54.2,71.4,54.7,70.3,54.7z"/>
		<path class="st47" d="M70.7,54.7h-1.5c-2.1,0-3.8-3.2-3.8-5.2V48c0-2.1,3.2-3.8,5.2-3.8h1.5c2.1,0,3.8,3.2,3.8,5.2v0
			c0,1-0.4,3.4-1.1,4.1C74.1,54.2,71.7,54.7,70.7,54.7z"/>
		<path class="st48" d="M71,54.7h-1.5c-2.1,0-3.7-3.2-3.7-5.2v-1.5c0-2.1,3.2-3.7,5.2-3.7h1.5c2.1,0,3.7,3.2,3.7,5.2v0
			c0,1-0.4,3.5-1.1,4.1C74.4,54.2,72,54.7,71,54.7z"/>
		<path class="st48" d="M71.3,54.7h-1.5c-2,0-3.7-3.2-3.7-5.2v-1.5c0-2,3.2-3.7,5.2-3.7h1.5c2,0,3.7,3.2,3.7,5.2v0
			c0,1-0.4,3.5-1.1,4.1S72.3,54.7,71.3,54.7z"/>
		<path class="st49" d="M71.6,54.7h-1.5c-2,0-3.7-3.2-3.7-5.2v-1.5c0-2,3.2-3.7,5.2-3.7h1.5c2,0,3.7,3.2,3.7,5.2v0
			c0,1-0.4,3.5-1.1,4.1C75.1,54.2,72.7,54.7,71.6,54.7z"/>
		<path class="st50" d="M72,54.7h-1.6c-2,0-3.7-3.2-3.7-5.2v-1.6c0-2,3.2-3.7,5.2-3.7h1.6c2,0,3.7,3.2,3.7,5.2v0
			c0,1-0.4,3.5-1.1,4.2S73,54.7,72,54.7z"/>
		<path class="st51" d="M72.3,54.7h-1.6c-2,0-3.6-3.2-3.6-5.2v-1.6c0-2,3.2-3.6,5.2-3.6h1.6c2,0,3.6,3.2,3.6,5.2v0
			c0,1-0.4,3.5-1.1,4.2C75.8,54.3,73.3,54.7,72.3,54.7z"/>
		<path class="st52" d="M72.6,54.7H71c-2,0-3.6-3.2-3.6-5.2v-1.6c0-2,3.2-3.6,5.2-3.6h1.6c2,0,3.6,3.2,3.6,5.2v0
			c0,1-0.4,3.5-1.1,4.2C76.1,54.3,73.6,54.7,72.6,54.7z"/>
		<path class="st53" d="M72.9,54.7h-1.6c-2,0-3.6-3.3-3.6-5.2v-1.6c0-2,3.3-3.6,5.2-3.6h1.6c2,0,3.6,3.3,3.6,5.2v0
			c0,1-0.4,3.5-1.1,4.2C76.5,54.3,73.9,54.7,72.9,54.7z"/>
		<path class="st54" d="M73.2,54.7h-1.7c-2,0-3.6-3.3-3.6-5.2v-1.7c0-2,3.3-3.6,5.2-3.6h1.7c2,0,3.6,3.3,3.6,5.2v0
			c0,1-0.4,3.5-1,4.2S74.2,54.7,73.2,54.7z"/>
		<path class="st55" d="M73.6,54.7h-1.7c-1.9,0-3.5-3.3-3.5-5.2v-1.7c0-1.9,3.3-3.5,5.2-3.5h1.7c1.9,0,3.5,3.3,3.5,5.2v0
			c0,1-0.4,3.6-1,4.2C77.1,54.3,74.5,54.7,73.6,54.7z"/>
		<path class="st56" d="M73.9,54.7h-1.7c-1.9,0-3.5-3.3-3.5-5.2v-1.7c0-1.9,3.3-3.5,5.2-3.5h1.7c1.9,0,3.5,3.3,3.5,5.2v0
			c0,1-0.4,3.6-1,4.2S74.9,54.7,73.9,54.7z"/>
		<path class="st57" d="M74.2,54.7h-1.7c-1.9,0-3.5-3.3-3.5-5.2v-1.7c0-1.9,3.3-3.5,5.2-3.5H76c1.9,0,3.5,3.3,3.5,5.2v0
			c0,1-0.4,3.6-1,4.2C77.8,54.3,75.2,54.7,74.2,54.7z"/>
		<path class="st58" d="M74.5,54.7h-1.8c-1.9,0-3.5-3.3-3.5-5.2l0-1.8c0-1.9,3.3-3.5,5.2-3.5h1.8c1.9,0,3.5,3.3,3.5,5.2v0
			c0,1-0.4,3.6-1,4.2C78.1,54.3,75.5,54.7,74.5,54.7z"/>
		<path class="st59" d="M74.9,54.7h-1.8c-1.9,0-3.4-3.3-3.4-5.2v-1.8c0-1.9,3.3-3.4,5.2-3.4h1.8c1.9,0,3.4,3.3,3.4,5.2v0
			c0,0.9-0.4,3.6-1,4.2C78.5,54.3,75.8,54.7,74.9,54.7z"/>
		<path class="st60" d="M75.2,54.7h-1.8c-1.9,0-3.4-3.4-3.4-5.2v-1.8c0-1.9,3.4-3.4,5.2-3.4H77c1.9,0,3.4,3.4,3.4,5.2v0
			c0,0.9-0.4,3.6-1,4.2C78.8,54.3,76.1,54.7,75.2,54.7z"/>
		<path class="st61" d="M75.5,54.7h-1.8c-1.9,0-3.4-3.4-3.4-5.2v-1.8c0-1.9,3.4-3.4,5.2-3.4h1.8c1.9,0,3.4,3.4,3.4,5.2v0
			c0,0.9-0.4,3.6-1,4.2C79.1,54.3,76.4,54.7,75.5,54.7z"/>
		<path class="st62" d="M75.8,54.7h-1.9c-1.8,0-3.4-3.4-3.4-5.2v-1.9c0-1.8,3.4-3.4,5.2-3.4h1.9c1.8,0,3.4,3.4,3.4,5.2v0
			c0,0.9-0.4,3.6-1,4.2S76.7,54.7,75.8,54.7z"/>
		<path class="st63" d="M76.1,54.7h-1.9c-1.8,0-3.3-3.4-3.3-5.2v-1.9c0-1.8,3.4-3.3,5.2-3.3H78c1.8,0,3.3,3.4,3.3,5.2v0
			c0,0.9-0.4,3.7-1,4.3C79.8,54.3,77.1,54.7,76.1,54.7z"/>
		<path class="st64" d="M76.5,54.7h-1.9c-1.8,0-3.3-3.4-3.3-5.2v-1.9c0-1.8,3.4-3.3,5.2-3.3h1.9c1.8,0,3.3,3.4,3.3,5.2v0
			c0,0.9-0.4,3.7-1,4.3C80.1,54.3,77.4,54.7,76.5,54.7z"/>
		<path class="st65" d="M76.8,54.7h-2c-1.8,0-3.3-3.4-3.3-5.2v-2c0-1.8,3.4-3.3,5.2-3.3h2c1.8,0,3.3,3.4,3.3,5.2v0
			c0,0.9-0.4,3.7-1,4.3C80.5,54.3,77.7,54.7,76.8,54.7z"/>
		<path class="st66" d="M77.1,54.7h-2c-1.8,0-3.3-3.4-3.3-5.2v-2c0-1.8,3.4-3.3,5.2-3.3h2c1.8,0,3.3,3.4,3.3,5.2v0
			c0,0.9-0.4,3.7-1,4.3C80.8,54.3,78,54.7,77.1,54.7z"/>
		<path class="st67" d="M77.4,54.7h-2c-1.8,0-3.2-3.5-3.2-5.2v-2c0-1.8,3.5-3.2,5.2-3.2h2c1.8,0,3.2,3.5,3.2,5.2v0
			c0,0.9-0.4,3.7-0.9,4.3C81.1,54.3,78.3,54.7,77.4,54.7z"/>
		<path class="st68" d="M77.8,54.7h-2c-1.8,0-3.2-3.5-3.2-5.2v-2c0-1.8,3.5-3.2,5.2-3.2h2c1.8,0,3.2,3.5,3.2,5.2v0
			c0,0.9-0.4,3.7-0.9,4.3C81.5,54.3,78.6,54.7,77.8,54.7z"/>
		<path class="st69" d="M78.1,54.7H76c-1.7,0-3.2-3.5-3.2-5.2v-2.1c0-1.7,3.5-3.2,5.2-3.2h2.1c1.7,0,3.2,3.5,3.2,5.2v0
			c0,0.9-0.4,3.7-0.9,4.3C81.8,54.3,79,54.7,78.1,54.7z"/>
		<path class="st70" d="M78.4,54.7h-2.1c-1.7,0-3.2-3.5-3.2-5.2v-2.1c0-1.7,3.5-3.2,5.2-3.2h2.1c1.7,0,3.2,3.5,3.2,5.2v0
			c0,0.9-0.4,3.7-0.9,4.3C82.1,54.3,79.3,54.7,78.4,54.7z"/>
		<path class="st71" d="M78.7,54.7h-2.1c-1.7,0-3.1-3.5-3.1-5.2v-2.1c0-1.7,3.5-3.1,5.2-3.1l2.1,0c1.7,0,3.1,3.5,3.1,5.2v0
			c0,0.9-0.4,3.7-0.9,4.3C82.5,54.3,79.6,54.7,78.7,54.7z"/>
		<path class="st72" d="M79,54.7h-2.1c-1.7,0-3.1-3.5-3.1-5.2l0-2.1c0-1.7,3.5-3.1,5.2-3.1l2.1,0c1.7,0,3.1,3.5,3.1,5.2v0
			c0,0.9-0.3,3.8-0.9,4.3C82.8,54.3,79.9,54.7,79,54.7z"/>
		<path class="st73" d="M79.4,54.7h-2.2c-1.7,0-3.1-3.5-3.1-5.2v-2.2c0-1.7,3.5-3.1,5.2-3.1l2.2,0c1.7,0,3.1,3.5,3.1,5.2v0
			c0,0.8-0.3,3.8-0.9,4.3C83.1,54.3,80.2,54.7,79.4,54.7z"/>
		<path class="st74" d="M79.7,54.7h-2.2c-1.7,0-3-3.6-3-5.2v-2.2c0-1.7,3.6-3,5.2-3l2.2,0c1.7,0,3,3.6,3,5.2v0
			c0,0.8-0.3,3.8-0.9,4.3C83.5,54.3,80.5,54.7,79.7,54.7z"/>
		<path class="st75" d="M80,54.7h-2.2c-1.7,0-3-3.6-3-5.2v-2.2c0-1.7,3.6-3,5.2-3l2.2,0c1.7,0,3,3.6,3,5.2v0c0,0.8-0.3,3.8-0.9,4.3
			S80.8,54.7,80,54.7z"/>
		<path class="st76" d="M80.3,54.7h-2.2c-1.6,0-3-3.6-3-5.2v-2.2c0-1.6,3.6-3,5.2-3l2.2,0c1.6,0,3,3.6,3,5.2v0
			c0,0.8-0.3,3.8-0.9,4.4C84.1,54.3,81.2,54.7,80.3,54.7z"/>
		<path class="st77" d="M80.7,54.7h-2.3c-1.6,0-3-3.6-3-5.2v-2.3c0-1.6,3.6-3,5.2-3l2.3,0c1.6,0,3,3.6,3,5.2v0
			c0,0.8-0.3,3.8-0.9,4.4S81.5,54.7,80.7,54.7z"/>
		<path class="st78" d="M81,54.7h-2.3c-1.6,0-2.9-3.6-2.9-5.2v-2.3c0-1.6,3.6-2.9,5.2-2.9l2.3,0c1.6,0,2.9,3.6,2.9,5.2v0
			c0,0.8-0.3,3.8-0.9,4.4C84.8,54.3,81.8,54.7,81,54.7z"/>
		<path class="st79" d="M81.3,54.7H79c-1.6,0-2.9-3.6-2.9-5.2v-2.3c0-1.6,3.6-2.9,5.2-2.9l2.3,0c1.6,0,2.9,3.6,2.9,5.2v0
			c0,0.8-0.3,3.8-0.9,4.4C85.1,54.3,82.1,54.7,81.3,54.7z"/>
		<path class="st79" d="M81.6,54.7h-2.3c-1.6,0-2.9-3.6-2.9-5.2v-2.3c0-1.6,3.6-2.9,5.2-2.9l2.3,0c1.6,0,2.9,3.6,2.9,5.2v0
			c0,0.8-0.3,3.9-0.8,4.4C85.5,54.3,82.4,54.7,81.6,54.7z"/>
		<path class="st79" d="M81.9,54.7h-2.4c-1.6,0-2.9-3.7-2.9-5.2v-2.4c0-1.6,3.7-2.9,5.2-2.9l2.4,0c1.6,0,2.9,3.7,2.9,5.2v0
			c0,0.8-0.3,3.9-0.8,4.4S82.7,54.7,81.9,54.7z"/>
		<path class="st80" d="M82.3,54.7h-2.4c-1.6,0-2.8-3.7-2.8-5.2V47c0-1.6,3.7-2.8,5.2-2.8l2.4,0c1.6,0,2.8,3.7,2.8,5.2v0
			c0,0.8-0.3,3.9-0.8,4.4C86.2,54.3,83,54.7,82.3,54.7z"/>
		<path class="st81" d="M82.6,54.7h-2.4c-1.5,0-2.8-3.7-2.8-5.2V47c0-1.5,3.7-2.8,5.2-2.8l2.4,0c1.5,0,2.8,3.7,2.8,5.2v0
			c0,0.8-0.3,3.9-0.8,4.4S83.4,54.7,82.6,54.7z"/>
		<path class="st82" d="M82.9,54.7h-2.4c-1.5,0-2.8-3.7-2.8-5.2V47c0-1.5,3.7-2.8,5.2-2.8l2.4,0c1.5,0,2.8,3.7,2.8,5.2v0
			c0,0.8-0.3,3.9-0.8,4.4C86.8,54.4,83.7,54.7,82.9,54.7z"/>
		<path class="st82" d="M83.2,54.7h-2.5c-1.5,0-2.8-3.7-2.8-5.2V47c0-1.5,3.7-2.8,5.2-2.8l2.5,0c1.5,0,2.8,3.7,2.8,5.2v0
			c0,0.8-0.3,3.9-0.8,4.4C87.2,54.4,84,54.7,83.2,54.7z"/>
		<path class="st83" d="M83.6,54.7h-2.5c-1.5,0-2.7-3.7-2.7-5.2l0-2.5c0-1.5,3.7-2.7,5.2-2.7l2.5,0c1.5,0,2.7,3.7,2.7,5.2v0
			c0,0.8-0.3,3.9-0.8,4.4C87.5,54.4,84.3,54.7,83.6,54.7z"/>
		<path class="st83" d="M83.9,54.7h-2.5c-1.5,0-2.7-3.7-2.7-5.2v-2.5c0-1.5,3.7-2.7,5.2-2.7l2.5,0c1.5,0,2.7,3.7,2.7,5.2v0
			c0,0.7-0.3,3.9-0.8,4.4C87.8,54.4,84.6,54.7,83.9,54.7z"/>
		<path class="st84" d="M84.2,54.7h-2.6c-1.5,0-2.7-3.8-2.7-5.2v-2.6c0-1.5,3.8-2.7,5.2-2.7l2.6,0c1.5,0,2.7,3.8,2.7,5.2v0
			c0,0.7-0.3,4-0.8,4.4S84.9,54.7,84.2,54.7z"/>
		<path class="st84" d="M84.5,54.7h-2.6c-1.5,0-2.7-3.8-2.7-5.2v-2.6c0-1.5,3.8-2.7,5.2-2.7l2.6,0c1.5,0,2.7,3.8,2.7,5.2v0
			c0,0.7-0.3,4-0.8,4.5S85.3,54.7,84.5,54.7z"/>
		<path class="st85" d="M84.8,54.7h-2.6c-1.4,0-2.6-3.8-2.6-5.2v-2.6c0-1.4,3.8-2.6,5.2-2.6l2.6,0c1.4,0,2.6,3.8,2.6,5.2v0
			c0,0.7-0.3,4-0.8,4.5C88.8,54.4,85.6,54.7,84.8,54.7z"/>
		<path class="st85" d="M85.2,54.7h-2.6c-1.4,0-2.6-3.8-2.6-5.2v-2.6c0-1.4,3.8-2.6,5.2-2.6l2.6,0c1.4,0,2.6,3.8,2.6,5.2v0
			c0,0.7-0.3,4-0.8,4.5C89.2,54.4,85.9,54.7,85.2,54.7z"/>
		<path class="st86" d="M85.5,54.7h-2.7c-1.4,0-2.6-3.8-2.6-5.2v-2.7c0-1.4,3.8-2.6,5.2-2.6l2.7,0c1.4,0,2.6,3.8,2.6,5.2v0
			c0,0.7-0.3,4-0.8,4.5C89.5,54.4,86.2,54.7,85.5,54.7z"/>
		<path class="st86" d="M85.8,54.7h-2.7c-1.4,0-2.6-3.8-2.6-5.2v-2.7c0-1.4,3.8-2.6,5.2-2.6l2.7,0c1.4,0,2.6,3.8,2.6,5.2v0
			c0,0.7-0.3,4-0.7,4.5C89.8,54.4,86.5,54.7,85.8,54.7z"/>
		<path class="st87" d="M86.1,54.7h-2.7c-1.4,0-2.5-3.8-2.5-5.2v-2.7c0-1.4,3.8-2.5,5.2-2.5l2.7,0c1.4,0,2.5,3.8,2.5,5.2v0
			c0,0.7-0.3,4-0.7,4.5C90.2,54.4,86.8,54.7,86.1,54.7z"/>
		<path class="st87" d="M86.5,54.7h-2.7c-1.4,0-2.5-3.9-2.5-5.2v-2.7c0-1.4,3.9-2.5,5.2-2.5l2.7,0c1.4,0,2.5,3.9,2.5,5.2v0
			c0,0.7-0.3,4-0.7,4.5C90.5,54.4,87.1,54.7,86.5,54.7z"/>
		<path class="st88" d="M86.8,54.7H84c-1.4,0-2.5-3.9-2.5-5.2v-2.8c0-1.4,3.9-2.5,5.2-2.5l2.8,0c1.4,0,2.5,3.9,2.5,5.2v0
			c0,0.7-0.3,4.1-0.7,4.5C90.8,54.4,87.5,54.7,86.8,54.7z"/>
		<path class="st88" d="M87.1,54.7h-2.8c-1.3,0-2.4-3.9-2.4-5.2v-2.8c0-1.3,3.9-2.4,5.2-2.4l2.8,0c1.3,0,2.4,3.9,2.4,5.2v0
			c0,0.7-0.3,4.1-0.7,4.5C91.2,54.4,87.8,54.7,87.1,54.7z"/>
		<path class="st89" d="M87.4,54.7h-2.8c-1.3,0-2.4-3.9-2.4-5.2v-2.8c0-1.3,3.9-2.4,5.2-2.4l2.8,0c1.3,0,2.4,3.9,2.4,5.2v0
			c0,0.7-0.3,4.1-0.7,4.5C91.5,54.4,88.1,54.7,87.4,54.7z"/>
		<path class="st90" d="M87.7,54.7h-2.8c-1.3,0-2.4-3.9-2.4-5.2v-2.8c0-1.3,3.9-2.4,5.2-2.4l2.8,0c1.3,0,2.4,3.9,2.4,5.2v0
			c0,0.7-0.3,4.1-0.7,4.5C91.8,54.4,88.4,54.7,87.7,54.7z"/>
		<path class="st90" d="M88.1,54.7h-2.9c-1.3,0-2.4-3.9-2.4-5.2l0-2.9c0-1.3,3.9-2.4,5.2-2.4l2.9,0c1.3,0,2.4,3.9,2.4,5.2v0
			c0,0.7-0.3,4.1-0.7,4.5C92.2,54.4,88.7,54.7,88.1,54.7z"/>
		<path class="st91" d="M88.4,54.7h-2.9c-1.3,0-2.3-3.9-2.3-5.2v-2.9c0-1.3,3.9-2.3,5.2-2.3l2.9,0c1.3,0,2.3,3.9,2.3,5.2v0
			c0,0.6-0.3,4.1-0.7,4.5C92.5,54.4,89,54.7,88.4,54.7z"/>
		<path class="st92" d="M88.7,54.7h-2.9c-1.3,0-2.3-4-2.3-5.2v-2.9c0-1.3,4-2.3,5.2-2.3l2.9,0c1.3,0,2.3,4,2.3,5.2v0
			c0,0.6-0.3,4.1-0.7,4.6S89.3,54.7,88.7,54.7z"/>
		<path class="st93" d="M89,54.7h-2.9c-1.3,0-2.3-4-2.3-5.2v-2.9c0-1.3,4-2.3,5.2-2.3l2.9,0c1.3,0,2.3,4,2.3,5.2v0
			c0,0.6-0.3,4.1-0.7,4.6S89.7,54.7,89,54.7z"/>
		<path class="st93" d="M89.4,54.7h-3c-1.2,0-2.3-4-2.3-5.2v-3c0-1.2,4-2.3,5.2-2.3l3,0c1.2,0,2.3,4,2.3,5.2v0
			c0,0.6-0.3,4.2-0.7,4.6S90,54.7,89.4,54.7z"/>
		<path class="st94" d="M89.7,54.7h-3c-1.2,0-2.2-4-2.2-5.2v-3c0-1.2,4-2.2,5.2-2.2l3,0c1.2,0,2.2,4,2.2,5.2v0
			c0,0.6-0.3,4.2-0.7,4.6C93.8,54.4,90.3,54.7,89.7,54.7z"/>
		<path class="st95" d="M90,54.7h-3c-1.2,0-2.2-4-2.2-5.2v-3c0-1.2,4-2.2,5.2-2.2l3,0c1.2,0,2.2,4,2.2,5.2v0c0,0.6-0.2,4.2-0.7,4.6
			C94.2,54.4,90.6,54.7,90,54.7z"/>
		<path class="st96" d="M90.3,54.7h-3c-1.2,0-2.2-4-2.2-5.2v-3c0-1.2,4-2.2,5.2-2.2l3,0c1.2,0,2.2,4,2.2,5.2v0
			c0,0.6-0.2,4.2-0.6,4.6C94.5,54.4,90.9,54.7,90.3,54.7z"/>
		<path class="st96" d="M90.6,54.7h-3.1c-1.2,0-2.2-4-2.2-5.2v-3.1c0-1.2,4-2.2,5.2-2.2l3.1,0c1.2,0,2.2,4,2.2,5.2v0
			c0,0.6-0.2,4.2-0.6,4.6S91.2,54.7,90.6,54.7z"/>
		<path class="st97" d="M91,54.7h-3.1c-1.2,0-2.1-4.1-2.1-5.2v-3.1c0-1.2,4.1-2.1,5.2-2.1l3.1,0c1.2,0,2.1,4.1,2.1,5.2v0
			c0,0.6-0.2,4.2-0.6,4.6C95.2,54.4,91.6,54.7,91,54.7z"/>
		<path class="st98" d="M91.3,54.7h-3.1c-1.2,0-2.1-4.1-2.1-5.2v-3.1c0-1.2,4.1-2.1,5.2-2.1l3.1,0c1.2,0,2.1,4.1,2.1,5.2v0
			c0,0.6-0.2,4.2-0.6,4.6S91.9,54.7,91.3,54.7z"/>
		<path class="st98" d="M91.6,54.7h-3.2c-1.1,0-2.1-4.1-2.1-5.2v-3.2c0-1.1,4.1-2.1,5.2-2.1l3.2,0c1.1,0,2.1,4.1,2.1,5.2v0
			c0,0.6-0.2,4.2-0.6,4.6C95.9,54.4,92.2,54.7,91.6,54.7z"/>
		<path class="st99" d="M91.9,54.7h-3.2c-1.1,0-2.1-4.1-2.1-5.2v-3.2c0-1.1,4.1-2.1,5.2-2.1l3.2,0c1.1,0,2.1,4.1,2.1,5.2v0
			c0,0.6-0.2,4.3-0.6,4.6S92.5,54.7,91.9,54.7z"/>
		<path class="st99" d="M92.3,54.7h-3.2c-1.1,0-2-4.1-2-5.2v-3.2c0-1.1,4.1-2,5.2-2l3.2,0c1.1,0,2,4.1,2,5.2v0
			c0,0.6-0.2,4.3-0.6,4.6C96.5,54.4,92.8,54.7,92.3,54.7z"/>
		<path class="st100" d="M92.6,54.7h-3.2c-1.1,0-2-4.1-2-5.2l0-3.2c0-1.1,4.1-2,5.2-2l3.2,0c1.1,0,2,4.1,2,5.2v0
			c0,0.6-0.2,4.3-0.6,4.6C96.9,54.4,93.1,54.7,92.6,54.7z"/>
		<path class="st100" d="M92.9,54.7h-3.3c-1.1,0-2-4.1-2-5.2v-3.3c0-1.1,4.1-2,5.2-2l3.3,0c1.1,0,2,4.1,2,5.2v0
			c0,0.5-0.2,4.3-0.6,4.7C97.2,54.4,93.4,54.7,92.9,54.7z"/>
		<path class="st101" d="M93.2,54.7h-3.3c-1.1,0-2-4.2-2-5.2v-3.3c0-1.1,4.2-2,5.2-2l3.3,0c1.1,0,2,4.2,2,5.2v0
			c0,0.5-0.2,4.3-0.6,4.7S93.8,54.7,93.2,54.7z"/>
		<path class="st101" d="M93.5,54.7h-3.3c-1.1,0-1.9-4.2-1.9-5.2v-3.3c0-1.1,4.2-1.9,5.2-1.9l3.3,0c1.1,0,1.9,4.2,1.9,5.2v0
			c0,0.5-0.2,4.3-0.6,4.7S94.1,54.7,93.5,54.7z"/>
		<path class="st102" d="M93.9,54.7h-3.3c-1,0-1.9-4.2-1.9-5.2v-3.3c0-1,4.2-1.9,5.2-1.9l3.3,0c1,0,1.9,4.2,1.9,5.2v0
			c0,0.5-0.2,4.3-0.6,4.7C98.2,54.5,94.4,54.7,93.9,54.7z"/>
		<path class="st102" d="M94.2,54.7h-3.4c-1,0-1.9-4.2-1.9-5.2v-3.4c0-1,4.2-1.9,5.2-1.9l3.4,0c1,0,1.9,4.2,1.9,5.2v0
			c0,0.5-0.2,4.3-0.6,4.7C98.5,54.5,94.7,54.7,94.2,54.7z"/>
		<path class="st103" d="M94.5,54.7h-3.4c-1,0-1.8-4.2-1.8-5.2V46c0-1,4.2-1.8,5.2-1.8l3.4,0c1,0,1.8,4.2,1.8,5.2v0
			c0,0.5-0.2,4.4-0.5,4.7C98.9,54.5,95,54.7,94.5,54.7z"/>
		<path class="st103" d="M94.8,54.7h-3.4c-1,0-1.8-4.2-1.8-5.2V46c0-1,4.2-1.8,5.2-1.8l3.4,0c1,0,1.8,4.2,1.8,5.2v0
			c0,0.5-0.2,4.4-0.5,4.7C99.2,54.5,95.3,54.7,94.8,54.7z"/>
		<path class="st104" d="M95.2,54.7h-3.4c-1,0-1.8-4.2-1.8-5.2V46c0-1,4.2-1.8,5.2-1.8l3.4,0c1,0,1.8,4.2,1.8,5.2v0
			c0,0.5-0.2,4.4-0.5,4.7C99.5,54.5,95.6,54.7,95.2,54.7z"/>
		<path class="st105" d="M95.5,54.7H92c-1,0-1.8-4.3-1.8-5.2V46c0-1,4.3-1.8,5.2-1.8l3.5,0c1,0,1.8,4.3,1.8,5.2v0
			c0,0.5-0.2,4.4-0.5,4.7C99.9,54.5,96,54.7,95.5,54.7z"/>
		<path class="st105" d="M95.8,54.7h-3.5c-1,0-1.7-4.3-1.7-5.2v-3.5c0-1,4.3-1.7,5.2-1.7l3.5,0c1,0,1.7,4.3,1.7,5.2v0
			c0,0.5-0.2,4.4-0.5,4.7C100.2,54.5,96.3,54.7,95.8,54.7z"/>
		<path class="st106" d="M96.1,54.7h-3.5c-0.9,0-1.7-4.3-1.7-5.2v-3.5c0-0.9,4.3-1.7,5.2-1.7l3.5,0c0.9,0,1.7,4.3,1.7,5.2v0
			c0,0.5-0.2,4.4-0.5,4.7C100.5,54.5,96.6,54.7,96.1,54.7z"/>
		<path class="st107" d="M96.4,54.7h-3.5c-0.9,0-1.7-4.3-1.7-5.2v-3.5c0-0.9,4.3-1.7,5.2-1.7l3.5,0c0.9,0,1.7,4.3,1.7,5.2v0
			c0,0.5-0.2,4.4-0.5,4.7C100.9,54.5,96.9,54.7,96.4,54.7z"/>
		<path class="st108" d="M96.8,54.7h-3.6c-0.9,0-1.7-4.3-1.7-5.2v-3.6c0-0.9,4.3-1.7,5.2-1.7l3.6,0c0.9,0,1.7,4.3,1.7,5.2v0
			c0,0.5-0.2,4.4-0.5,4.7C101.2,54.5,97.2,54.7,96.8,54.7z"/>
		<path class="st108" d="M97.1,54.7h-3.6c-0.9,0-1.6-4.3-1.6-5.2l0-3.6c0-0.9,4.3-1.6,5.2-1.6l3.6,0c0.9,0,1.6,4.3,1.6,5.2v0
			c0,0.5-0.2,4.5-0.5,4.8C101.5,54.5,97.5,54.7,97.1,54.7z"/>
		<path class="st109" d="M97.4,54.7h-3.6c-0.9,0-1.6-4.3-1.6-5.2v-3.6c0-0.9,4.3-1.6,5.2-1.6l3.6,0c0.9,0,1.6,4.3,1.6,5.2v0
			c0,0.4-0.2,4.5-0.5,4.8S97.9,54.7,97.4,54.7z"/>
		<path class="st110" d="M97.7,54.7h-3.6c-0.9,0-1.6-4.4-1.6-5.2v-3.6c0-0.9,4.4-1.6,5.2-1.6l3.6,0c0.9,0,1.6,4.4,1.6,5.2v0
			c0,0.4-0.2,4.5-0.5,4.8S98.2,54.7,97.7,54.7z"/>
		<path class="st110" d="M98.1,54.7h-3.7c-0.9,0-1.6-4.4-1.6-5.2v-3.7c0-0.9,4.4-1.6,5.2-1.6l3.7,0c0.9,0,1.6,4.4,1.6,5.2v0
			c0,0.4-0.2,4.5-0.5,4.8S98.5,54.7,98.1,54.7z"/>
		<path class="st111" d="M98.4,54.7h-3.7c-0.8,0-1.5-4.4-1.5-5.2v-3.7c0-0.8,4.4-1.5,5.2-1.5l3.7,0c0.8,0,1.5,4.4,1.5,5.2v0
			c0,0.4-0.2,4.5-0.5,4.8S98.8,54.7,98.4,54.7z"/>
		<path class="st111" d="M98.7,54.7H95c-0.8,0-1.5-4.4-1.5-5.2v-3.7c0-0.8,4.4-1.5,5.2-1.5l3.7,0c0.8,0,1.5,4.4,1.5,5.2v0
			c0,0.4-0.2,4.5-0.4,4.8C103.2,54.5,99.1,54.7,98.7,54.7z"/>
		<path class="st112" d="M99,54.7h-3.7c-0.8,0-1.5-4.4-1.5-5.2v-3.7c0-0.8,4.4-1.5,5.2-1.5l3.7,0c0.8,0,1.5,4.4,1.5,5.2v0
			c0,0.4-0.2,4.5-0.4,4.8C103.5,54.5,99.4,54.7,99,54.7z"/>
		<path class="st112" d="M99.3,54.7h-3.8c-0.8,0-1.5-4.4-1.5-5.2v-3.8c0-0.8,4.4-1.5,5.2-1.5l3.8,0c0.8,0,1.5,4.4,1.5,5.2v0
			c0,0.4-0.2,4.5-0.4,4.8S99.7,54.7,99.3,54.7z"/>
		<path class="st113" d="M99.7,54.7h-3.8c-0.8,0-1.4-4.4-1.4-5.2v-3.8c0-0.8,4.4-1.4,5.2-1.4l3.8,0c0.8,0,1.4,4.4,1.4,5.2v0
			c0,0.4-0.2,4.6-0.4,4.8C104.2,54.5,100.1,54.7,99.7,54.7z"/>
		<path class="st113" d="M100,54.7h-3.8c-0.8,0-1.4-4.5-1.4-5.2v-3.8c0-0.8,4.5-1.4,5.2-1.4l3.8,0c0.8,0,1.4,4.5,1.4,5.2v0
			c0,0.4-0.2,4.6-0.4,4.8S100.4,54.7,100,54.7z"/>
		<path class="st114" d="M100.3,54.7h-3.9c-0.8,0-1.4-4.5-1.4-5.2v-3.9c0-0.8,4.5-1.4,5.2-1.4l3.9,0c0.8,0,1.4,4.5,1.4,5.2v0
			c0,0.4-0.2,4.6-0.4,4.8C104.9,54.5,100.7,54.7,100.3,54.7z"/>
		<path class="st114" d="M100.6,54.7h-3.9c-0.7,0-1.4-4.5-1.4-5.2v-3.9c0-0.7,4.5-1.4,5.2-1.4l3.9,0c0.7,0,1.4,4.5,1.4,5.2v0
			c0,0.4-0.2,4.6-0.4,4.8C105.2,54.5,101,54.7,100.6,54.7z"/>
		<path class="st114" d="M101,54.7H97c-0.7,0-1.3-4.5-1.3-5.2v-3.9c0-0.7,4.5-1.3,5.2-1.3l3.9,0c0.7,0,1.3,4.5,1.3,5.2v0
			c0,0.4-0.1,4.6-0.4,4.8C105.6,54.5,101.3,54.7,101,54.7z"/>
		<path class="st115" d="M101.3,54.7h-3.9c-0.7,0-1.3-4.5-1.3-5.2v-3.9c0-0.7,4.5-1.3,5.2-1.3l3.9,0c0.7,0,1.3,4.5,1.3,5.2v0
			c0,0.4-0.1,4.6-0.4,4.9C105.9,54.5,101.6,54.7,101.3,54.7z"/>
		<path class="st116" d="M101.6,54.7h-4c-0.7,0-1.3-4.5-1.3-5.2l0-4c0-0.7,4.5-1.3,5.2-1.3l4,0c0.7,0,1.3,4.5,1.3,5.2v0
			c0,0.4-0.1,4.6-0.4,4.9C106.2,54.5,102,54.7,101.6,54.7z"/>
		<path class="st117" d="M101.9,54.7h-4c-0.7,0-1.2-4.5-1.2-5.2v-4c0-0.7,4.5-1.2,5.2-1.2l4,0c0.7,0,1.2,4.5,1.2,5.2v0
			c0,0.3-0.1,4.6-0.4,4.9S102.3,54.7,101.9,54.7z"/>
		<path class="st117" d="M102.2,54.7h-4c-0.7,0-1.2-4.6-1.2-5.2v-4c0-0.7,4.6-1.2,5.2-1.2l4,0c0.7,0,1.2,4.6,1.2,5.2v0
			c0,0.3-0.1,4.7-0.4,4.9S102.6,54.7,102.2,54.7z"/>
		<path class="st118" d="M102.6,54.7h-4c-0.7,0-1.2-4.6-1.2-5.2v-4c0-0.7,4.6-1.2,5.2-1.2l4,0c0.7,0,1.2,4.6,1.2,5.2v0
			c0,0.3-0.1,4.7-0.4,4.9C107.2,54.5,102.9,54.7,102.6,54.7z"/>
		<path class="st119" d="M102.9,54.7h-4.1c-0.6,0-1.2-4.6-1.2-5.2v-4.1c0-0.6,4.6-1.2,5.2-1.2l4.1,0c0.6,0,1.2,4.6,1.2,5.2v0
			c0,0.3-0.1,4.7-0.3,4.9C107.6,54.5,103.2,54.7,102.9,54.7z"/>
		<path class="st120" d="M103.2,54.7h-4.1c-0.6,0-1.1-4.6-1.1-5.2v-4.1c0-0.6,4.6-1.1,5.2-1.1l4.1,0c0.6,0,1.1,4.6,1.1,5.2v0
			c0,0.3-0.1,4.7-0.3,4.9C107.9,54.5,103.5,54.7,103.2,54.7z"/>
		<path class="st120" d="M103.5,54.7h-4.1c-0.6,0-1.1-4.6-1.1-5.2v-4.1c0-0.6,4.6-1.1,5.2-1.1l4.1,0c0.6,0,1.1,4.6,1.1,5.2v0
			c0,0.3-0.1,4.7-0.3,4.9C108.2,54.5,103.8,54.7,103.5,54.7z"/>
		<path class="st120" d="M103.9,54.7h-4.1c-0.6,0-1.1-4.6-1.1-5.2v-4.1c0-0.6,4.6-1.1,5.2-1.1l4.1,0c0.6,0,1.1,4.6,1.1,5.2v0
			c0,0.3-0.1,4.7-0.3,4.9C108.6,54.5,104.2,54.7,103.9,54.7z"/>
		<path class="st121" d="M104.2,54.7H100c-0.6,0-1.1-4.6-1.1-5.2v-4.2c0-0.6,4.6-1.1,5.2-1.1l4.2,0c0.6,0,1.1,4.6,1.1,5.2l0,0
			c0,0.3-0.1,4.7-0.3,4.9C108.9,54.5,104.5,54.7,104.2,54.7z"/>
		<path class="st122" d="M104.5,54.7h-4.2c-0.6,0-1-4.7-1-5.2v-4.2c0-0.6,4.7-1,5.2-1l4.2,0c0.6,0,1,4.7,1,5.2l0,0
			c0,0.3-0.1,4.7-0.3,4.9C109.2,54.5,104.8,54.7,104.5,54.7z"/>
		<path class="st123" d="M104.8,54.7h-4.2c-0.6,0-1-4.7-1-5.2v-4.2c0-0.6,4.7-1,5.2-1l4.2,0c0.6,0,1,4.7,1,5.2l0,0
			c0,0.3-0.1,4.8-0.3,4.9C109.6,54.6,105.1,54.7,104.8,54.7z"/>
		<path class="st123" d="M105.1,54.7h-4.2c-0.5,0-1-4.7-1-5.2v-4.2c0-0.5,4.7-1,5.2-1l4.2,0c0.5,0,1,4.7,1,5.2l0,0
			c0,0.3-0.1,4.8-0.3,4.9C109.9,54.6,105.4,54.7,105.1,54.7z"/>
		<path class="st124" d="M105.5,54.7h-4.3c-0.5,0-1-4.7-1-5.2v-4.3c0-0.5,4.7-1,5.2-1l4.3,0c0.5,0,1,4.7,1,5.2l0,0
			c0,0.3-0.1,4.8-0.3,5C110.2,54.6,105.7,54.7,105.5,54.7z"/>
		<path class="st125" d="M105.8,54.7h-4.3c-0.5,0-0.9-4.7-0.9-5.2v-4.3c0-0.5,4.7-0.9,5.2-0.9l4.3,0c0.5,0,0.9,4.7,0.9,5.2l0,0
			c0,0.3-0.1,4.8-0.3,5C110.6,54.6,106,54.7,105.8,54.7z"/>
		<path class="st126" d="M106.1,54.7h-4.3c-0.5,0-0.9-4.7-0.9-5.2l0-4.3c0-0.5,4.7-0.9,5.2-0.9l4.3,0c0.5,0,0.9,4.7,0.9,5.2l0,0
			c0,0.3-0.1,4.8-0.3,5S106.4,54.7,106.1,54.7z"/>
		<path class="st126" d="M106.4,54.7h-4.3c-0.5,0-0.9-4.7-0.9-5.2v-4.3c0-0.5,4.7-0.9,5.2-0.9l4.3,0c0.5,0,0.9,4.7,0.9,5.2l0,0
			c0,0.2-0.1,4.8-0.3,5C111.2,54.6,106.7,54.7,106.4,54.7z"/>
		<path class="st126" d="M106.8,54.7h-4.4c-0.5,0-0.9-4.8-0.9-5.2v-4.4c0-0.5,4.8-0.9,5.2-0.9l4.4,0c0.5,0,0.9,4.8,0.9,5.2l0,0
			c0,0.2-0.1,4.8-0.3,5S107,54.7,106.8,54.7z"/>
		<path class="st127" d="M107.1,54.7h-4.4c-0.5,0-0.8-4.8-0.8-5.2V45c0-0.5,4.8-0.8,5.2-0.8l4.4,0c0.5,0,0.8,4.8,0.8,5.2l0,0
			c0,0.2-0.1,4.8-0.2,5C111.9,54.6,107.3,54.7,107.1,54.7z"/>
		<path class="st127" d="M107.4,54.7H103c-0.4,0-0.8-4.8-0.8-5.2V45c0-0.4,4.8-0.8,5.2-0.8l4.4,0c0.4,0,0.8,4.8,0.8,5.2l0,0
			c0,0.2-0.1,4.8-0.2,5C112.2,54.6,107.6,54.7,107.4,54.7z"/>
		<path class="st128" d="M107.7,54.7h-4.5c-0.4,0-0.8-4.8-0.8-5.2V45c0-0.4,4.8-0.8,5.2-0.8l4.5,0c0.4,0,0.8,4.8,0.8,5.2l0,0
			c0,0.2-0.1,4.9-0.2,5C112.6,54.6,107.9,54.7,107.7,54.7z"/>
		<path class="st128" d="M108,54.7h-4.5c-0.4,0-0.8-4.8-0.8-5.2V45c0-0.4,4.8-0.8,5.2-0.8l4.5,0c0.4,0,0.8,4.8,0.8,5.2l0,0
			c0,0.2-0.1,4.9-0.2,5S108.3,54.7,108,54.7z"/>
		<path class="st128" d="M108.4,54.7h-4.5c-0.4,0-0.7-4.8-0.7-5.2v-4.5c0-0.4,4.8-0.7,5.2-0.7l4.5,0c0.4,0,0.7,4.8,0.7,5.2l0,0
			c0,0.2-0.1,4.9-0.2,5C113.3,54.6,108.6,54.7,108.4,54.7z"/>
		<path class="st129" d="M108.7,54.7h-4.5c-0.4,0-0.7-4.8-0.7-5.2v-4.5c0-0.4,4.8-0.7,5.2-0.7l4.5,0c0.4,0,0.7,4.8,0.7,5.2l0,0
			c0,0.2-0.1,4.9-0.2,5S108.9,54.7,108.7,54.7z"/>
		<path class="st129" d="M109,54.7h-4.6c-0.4,0-0.7-4.9-0.7-5.2v-4.6c0-0.4,4.9-0.7,5.2-0.7l4.6,0c0.4,0,0.7,4.9,0.7,5.2l0,0
			c0,0.2-0.1,4.9-0.2,5C113.9,54.6,109.2,54.7,109,54.7z"/>
		<path class="st130" d="M109.3,54.7h-4.6c-0.4,0-0.7-4.9-0.7-5.2v-4.6c0-0.4,4.9-0.7,5.2-0.7l4.6,0c0.4,0,0.7,4.9,0.7,5.2l0,0
			c0,0.2-0.1,4.9-0.2,5S109.5,54.7,109.3,54.7z"/>
		<path class="st130" d="M109.7,54.7H105c-0.3,0-0.6-4.9-0.6-5.2v-4.6c0-0.3,4.9-0.6,5.2-0.6l4.6,0c0.3,0,0.6,4.9,0.6,5.2l0,0
			c0,0.2-0.1,4.9-0.2,5C114.6,54.6,109.8,54.7,109.7,54.7z"/>
		<path class="st131" d="M110,54.7h-4.6c-0.3,0-0.6-4.9-0.6-5.2v-4.6c0-0.3,4.9-0.6,5.2-0.6l4.6,0c0.3,0,0.6,4.9,0.6,5.2l0,0
			c0,0.2-0.1,4.9-0.2,5.1C114.9,54.6,110.1,54.7,110,54.7z"/>
		<path class="st132" d="M110.3,54.7h-4.7c-0.3,0-0.6-4.9-0.6-5.2v-4.7c0-0.3,4.9-0.6,5.2-0.6l4.7,0c0.3,0,0.6,4.9,0.6,5.2l0,0
			c0,0.2-0.1,5-0.2,5.1C115.3,54.6,110.5,54.7,110.3,54.7z"/>
		<path class="st132" d="M110.6,54.7h-4.7c-0.3,0-0.5-4.9-0.5-5.2l0-4.7c0-0.3,4.9-0.5,5.2-0.5l4.7,0c0.3,0,0.5,4.9,0.5,5.2l0,0
			c0,0.2-0.1,5-0.2,5.1S110.8,54.7,110.6,54.7z"/>
		<path class="st133" d="M110.9,54.7h-4.7c-0.3,0-0.5-4.9-0.5-5.2v-4.7c0-0.3,4.9-0.5,5.2-0.5l4.7,0c0.3,0,0.5,4.9,0.5,5.2l0,0
			c0,0.1-0.1,5-0.2,5.1C115.9,54.6,111.1,54.7,110.9,54.7z"/>
		<path class="st133" d="M111.3,54.7h-4.7c-0.3,0-0.5-5-0.5-5.2v-4.7c0-0.3,5-0.5,5.2-0.5l4.7,0c0.3,0,0.5,5,0.5,5.2l0,0
			c0,0.1-0.1,5-0.1,5.1C116.3,54.6,111.4,54.7,111.3,54.7z"/>
		<path class="st134" d="M111.6,54.7h-4.8c-0.3,0-0.5-5-0.5-5.2v-4.8c0-0.3,5-0.5,5.2-0.5l4.8,0c0.3,0,0.5,5,0.5,5.2l0,0
			c0,0.1-0.1,5-0.1,5.1C116.6,54.6,111.7,54.7,111.6,54.7z"/>
		<path class="st134" d="M111.9,54.7h-4.8c-0.2,0-0.4-5-0.4-5.2v-4.8c0-0.2,5-0.4,5.2-0.4l4.8,0c0.2,0,0.4,5,0.4,5.2l0,0
			c0,0.1,0,5-0.1,5.1C116.9,54.6,112,54.7,111.9,54.7z"/>
		<path class="st135" d="M112.2,54.7h-4.8c-0.2,0-0.4-5-0.4-5.2v-4.8c0-0.2,5-0.4,5.2-0.4l4.8,0c0.2,0,0.4,5,0.4,5.2l0,0
			c0,0.1,0,5-0.1,5.1C117.3,54.6,112.3,54.7,112.2,54.7z"/>
		<path class="st135" d="M112.6,54.7h-4.8c-0.2,0-0.4-5-0.4-5.2v-4.8c0-0.2,5-0.4,5.2-0.4l4.8,0c0.2,0,0.4,5,0.4,5.2l0,0
			c0,0.1,0,5-0.1,5.1C117.6,54.6,112.7,54.7,112.6,54.7z"/>
		<path class="st135" d="M112.9,54.7H108c-0.2,0-0.4-5-0.4-5.2v-4.9c0-0.2,5-0.4,5.2-0.4l4.9,0c0.2,0,0.4,5,0.4,5.2l0,0
			c0,0.1,0,5.1-0.1,5.1C117.9,54.6,113,54.7,112.9,54.7z"/>
		<path class="st136" d="M113.2,54.7h-4.9c-0.2,0-0.3-5-0.3-5.2v-4.9c0-0.2,5-0.3,5.2-0.3l4.9,0c0.2,0,0.3,5,0.3,5.2l0,0
			c0,0.1,0,5.1-0.1,5.1C118.3,54.6,113.3,54.7,113.2,54.7z"/>
		<path class="st136" d="M113.5,54.7h-4.9c-0.2,0-0.3-5.1-0.3-5.2v-4.9c0-0.2,5.1-0.3,5.2-0.3l4.9,0c0.2,0,0.3,5.1,0.3,5.2l0,0
			c0,0.1,0,5.1-0.1,5.1C118.6,54.6,113.6,54.7,113.5,54.7z"/>
		<path class="st137" d="M113.8,54.7h-4.9c-0.2,0-0.3-5.1-0.3-5.2v-4.9c0-0.2,5.1-0.3,5.2-0.3l4.9,0c0.2,0,0.3,5.1,0.3,5.2l0,0
			c0,0.1,0,5.1-0.1,5.1C118.9,54.6,113.9,54.7,113.8,54.7z"/>
		<path class="st137" d="M114.2,54.7h-5c-0.1,0-0.3-5.1-0.3-5.2v-5c0-0.1,5.1-0.3,5.2-0.3l5,0c0.1,0,0.3,5.1,0.3,5.2l0,0
			c0,0.1,0,5.1-0.1,5.2C119.3,54.6,114.2,54.7,114.2,54.7z"/>
		<path class="st137" d="M114.5,54.7h-5c-0.1,0-0.2-5.1-0.2-5.2v-5c0-0.1,5.1-0.2,5.2-0.2l5,0c0.1,0,0.2,5.1,0.2,5.2l0,0
			c0,0.1,0,5.1-0.1,5.2C119.6,54.6,114.6,54.7,114.5,54.7z"/>
		<path class="st138" d="M114.8,54.7h-5c-0.1,0-0.2-5.1-0.2-5.2v-5c0-0.1,5.1-0.2,5.2-0.2l5,0c0.1,0,0.2,5.1,0.2,5.2l0,0
			c0,0.1,0,5.1-0.1,5.2C119.9,54.6,114.9,54.7,114.8,54.7z"/>
		<path class="st138" d="M115.1,54.7h-5.1c-0.1,0-0.2-5.1-0.2-5.2l0-5.1c0-0.1,5.1-0.2,5.2-0.2l5.1,0c0.1,0,0.2,5.1,0.2,5.2l0,0
			c0,0.1,0,5.1-0.1,5.2C120.3,54.6,115.2,54.7,115.1,54.7z"/>
		<path class="st139" d="M115.5,54.7h-5.1c-0.1,0-0.2-5.1-0.2-5.2v-5.1c0-0.1,5.1-0.2,5.2-0.2l5.1,0c0.1,0,0.2,5.1,0.2,5.2l0,0
			c0,0,0,5.2,0,5.2S115.5,54.7,115.5,54.7z"/>
		<path class="st139" d="M115.8,54.7h-5.1c-0.1,0-0.1-5.2-0.1-5.2v-5.1c0-0.1,5.2-0.1,5.2-0.1l5.1,0c0.1,0,0.1,5.2,0.1,5.2l0,0
			c0,0,0,5.2,0,5.2C120.9,54.7,115.8,54.7,115.8,54.7z"/>
		<path class="st139" d="M116.1,54.7H111c-0.1,0-0.1-5.2-0.1-5.2v-5.1c0-0.1,5.2-0.1,5.2-0.1l5.1,0c0.1,0,0.1,5.2,0.1,5.2l0,0
			c0,0,0,5.2,0,5.2C121.3,54.7,116.1,54.7,116.1,54.7z"/>
		<path class="st1" d="M116.4,54.7h-5.2c0,0-0.1-5.2-0.1-5.2v-5.2c0,0,5.2-0.1,5.2-0.1l5.2,0c0,0,0.1,5.2,0.1,5.2l0,0
			c0,0,0,5.2,0,5.2C121.6,54.7,116.4,54.7,116.4,54.7z"/>
		<path class="st1" d="M116.7,54.7h-5.2c0,0-0.1-5.2-0.1-5.2v-5.2c0,0,5.2-0.1,5.2-0.1l5.2,0c0,0,0.1,5.2,0.1,5.2l0,0
			c0,0,0,5.2,0,5.2S116.8,54.7,116.7,54.7z"/>
		<path class="st140" d="M117.1,54.7h-5.2c0,0,0-5.2,0-5.2v-5.2c0,0,5.2,0,5.2,0l5.2,0c0,0,0,5.2,0,5.2l0,0c0,0,0,5.2,0,5.2
			C122.3,54.7,117.1,54.7,117.1,54.7z"/>
		<polygon class="st1" points="122.6,54.7 117.4,54.7 112.2,54.7 112.2,49.4 112.2,44.2 117.4,44.2 122.6,44.2 122.6,49.4 		"/>
	</g>
	<g>
		<path class="st141" d="M52.6,97.2L52.6,97.2c-2.9,0-5.2-2.4-5.2-5.2v0c0-2.9,2.4-5.2,5.2-5.2h0c2.9,0,5.2,2.4,5.2,5.2v0
			C57.9,94.9,55.5,97.2,52.6,97.2z"/>
		<path class="st142" d="M53.2,97.2L53.2,97.2c-2.9,0-5.2-2.4-5.2-5.2v0c0-2.9,2.4-5.2,5.2-5.2h0c2.9,0,5.2,2.4,5.2,5.2v0
			c0,1.4-0.6,2.8-1.5,3.7C56,96.6,54.6,97.2,53.2,97.2z"/>
		<path class="st143" d="M53.8,97.2L53.8,97.2c-2.9,0-5.2-2.4-5.2-5.2v-0.1c0-2.8,2.4-5.1,5.2-5.1h0.1c2.8,0,5.1,2.4,5.1,5.2v0
			c0,1.4-0.6,2.8-1.5,3.7S55.2,97.2,53.8,97.2z"/>
		<path class="st144" d="M54.3,97.2h-0.1c-2.8,0-5.1-2.4-5.1-5.2v-0.1c0-2.8,2.4-5.1,5.2-5.1h0.1c2.8,0,5.1,2.4,5.1,5.2v0
			c0,1.4-0.6,2.8-1.5,3.7S55.7,97.2,54.3,97.2z"/>
		<path class="st145" d="M54.9,97.2h-0.2c-2.8,0-5.1-2.5-5.1-5.2v-0.2c0-2.8,2.5-5.1,5.2-5.1h0.2c2.8,0,5.1,2.5,5.1,5.2v0
			c0,1.4-0.6,2.8-1.5,3.7S56.3,97.2,54.9,97.2z"/>
		<path class="st146" d="M55.4,97.2h-0.2c-2.8,0-5-2.5-5-5.2v-0.2c0-2.8,2.5-5,5.2-5h0.2c2.8,0,5,2.5,5,5.2v0c0,1.4-0.6,2.9-1.5,3.8
			C58.3,96.7,56.8,97.2,55.4,97.2z"/>
		<path class="st147" d="M56,97.2h-0.3c-2.7,0-5-2.5-5-5.2v-0.3c0-2.7,2.5-5,5.2-5h0.3c2.7,0,5,2.5,5,5.2v0c0,1.4-0.6,2.9-1.5,3.8
			C58.9,96.7,57.4,97.2,56,97.2z"/>
		<path class="st148" d="M56.6,97.2h-0.3c-2.7,0-4.9-2.5-4.9-5.2v-0.3c0-2.7,2.5-4.9,5.2-4.9h0.3c2.7,0,4.9,2.5,4.9,5.2v0
			c0,1.4-0.6,2.9-1.4,3.8C59.5,96.7,57.9,97.2,56.6,97.2z"/>
		<path class="st149" d="M57.1,97.2h-0.4c-2.7,0-4.9-2.6-4.9-5.2v-0.4c0-2.7,2.6-4.9,5.2-4.9h0.4c2.7,0,4.9,2.6,4.9,5.2v0
			c0,1.3-0.5,2.9-1.4,3.8C60.1,96.7,58.5,97.2,57.1,97.2z"/>
		<path class="st150" d="M57.7,97.2h-0.4c-2.7,0-4.8-2.6-4.8-5.2v-0.4c0-2.7,2.6-4.8,5.2-4.8h0.4c2.7,0,4.8,2.6,4.8,5.2v0
			c0,1.3-0.5,2.9-1.4,3.8C60.6,96.7,59,97.2,57.7,97.2z"/>
		<path class="st151" d="M58.3,97.2h-0.5c-2.6,0-4.8-2.6-4.8-5.2v-0.5c0-2.6,2.6-4.8,5.2-4.8h0.5c2.6,0,4.8,2.6,4.8,5.2v0
			c0,1.3-0.5,3-1.4,3.8C61.2,96.7,59.6,97.2,58.3,97.2z"/>
		<path class="st152" d="M58.8,97.2h-0.5c-2.6,0-4.7-2.6-4.7-5.2v-0.5c0-2.6,2.6-4.7,5.2-4.7h0.5c2.6,0,4.7,2.6,4.7,5.2v0
			c0,1.3-0.5,3-1.4,3.8C61.8,96.7,60.1,97.2,58.8,97.2z"/>
		<path class="st153" d="M59.4,97.2h-0.5c-2.6,0-4.7-2.7-4.7-5.2v-0.5c0-2.6,2.7-4.7,5.2-4.7h0.5c2.6,0,4.7,2.7,4.7,5.2v0
			c0,1.3-0.5,3-1.4,3.9C62.4,96.7,60.7,97.2,59.4,97.2z"/>
		<path class="st154" d="M59.9,97.2h-0.6c-2.6,0-4.6-2.7-4.6-5.2v-0.6c0-2.6,2.7-4.6,5.2-4.6h0.6c2.6,0,4.6,2.7,4.6,5.2v0
			c0,1.3-0.5,3-1.4,3.9C63,96.7,61.2,97.2,59.9,97.2z"/>
		<path class="st155" d="M60.5,97.2h-0.6c-2.5,0-4.6-2.7-4.6-5.2v-0.6c0-2.5,2.7-4.6,5.2-4.6h0.6c2.5,0,4.6,2.7,4.6,5.2v0
			c0,1.3-0.5,3.1-1.4,3.9C63.6,96.7,61.8,97.2,60.5,97.2z"/>
		<path class="st156" d="M61.1,97.2h-0.7c-2.5,0-4.6-2.7-4.6-5.2v-0.7c0-2.5,2.7-4.6,5.2-4.6h0.7c2.5,0,4.6,2.7,4.6,5.2v0
			c0,1.3-0.5,3.1-1.3,3.9C64.1,96.7,62.3,97.2,61.1,97.2z"/>
		<path class="st157" d="M61.6,97.2h-0.7c-2.5,0-4.5-2.8-4.5-5.2v-0.7c0-2.5,2.8-4.5,5.2-4.5h0.7c2.5,0,4.5,2.8,4.5,5.2v0
			c0,1.2-0.5,3.1-1.3,3.9C64.7,96.7,62.9,97.2,61.6,97.2z"/>
		<path class="st158" d="M62.2,97.2h-0.8C59,97.2,57,94.5,57,92v-0.8c0-2.5,2.8-4.5,5.2-4.5H63c2.5,0,4.5,2.8,4.5,5.2v0
			c0,1.2-0.5,3.1-1.3,3.9S63.4,97.2,62.2,97.2z"/>
		<path class="st159" d="M62.8,97.2h-0.8c-2.4,0-4.4-2.8-4.4-5.2v-0.8c0-2.4,2.8-4.4,5.2-4.4h0.8c2.4,0,4.4,2.8,4.4,5.2v0
			c0,1.2-0.5,3.1-1.3,3.9S64,97.2,62.8,97.2z"/>
		<path class="st160" d="M63.3,97.2h-0.9c-2.4,0-4.4-2.8-4.4-5.2v-0.9c0-2.4,2.8-4.4,5.2-4.4h0.9c2.4,0,4.4,2.8,4.4,5.2v0
			c0,1.2-0.5,3.2-1.3,3.9S64.5,97.2,63.3,97.2z"/>
		<path class="st161" d="M63.9,97.2H63c-2.4,0-4.3-2.9-4.3-5.2v-0.9c0-2.4,2.9-4.3,5.2-4.3h0.9c2.4,0,4.3,2.9,4.3,5.2v0
			c0,1.2-0.5,3.2-1.3,4C67.1,96.7,65.1,97.2,63.9,97.2z"/>
		<path class="st162" d="M64.5,97.2h-1c-2.4,0-4.3-2.9-4.3-5.2v-1c0-2.4,2.9-4.3,5.2-4.3h1c2.4,0,4.3,2.9,4.3,5.2v0
			c0,1.2-0.5,3.2-1.3,4C67.7,96.8,65.6,97.2,64.5,97.2z"/>
		<path class="st163" d="M65,97.2h-1c-2.3,0-4.2-2.9-4.2-5.2v-1c0-2.3,2.9-4.2,5.2-4.2h1c2.3,0,4.2,2.9,4.2,5.2v0
			c0,1.2-0.5,3.2-1.2,4C68.2,96.8,66.2,97.2,65,97.2z"/>
		<path class="st164" d="M65.6,97.2h-1c-2.3,0-4.2-2.9-4.2-5.2v-1c0-2.3,2.9-4.2,5.2-4.2h1c2.3,0,4.2,2.9,4.2,5.2v0
			c0,1.2-0.5,3.2-1.2,4C68.8,96.8,66.7,97.2,65.6,97.2z"/>
		<path class="st165" d="M66.1,97.2H65c-2.3,0-4.1-3-4.1-5.2v-1.1c0-2.3,3-4.1,5.2-4.1h1.1c2.3,0,4.1,3,4.1,5.2v0
			c0,1.1-0.5,3.3-1.2,4C69.4,96.8,67.3,97.2,66.1,97.2z"/>
		<path class="st166" d="M66.7,97.2h-1.1c-2.3,0-4.1-3-4.1-5.2l0-1.1c0-2.3,3-4.1,5.2-4.1h1.1c2.3,0,4.1,3,4.1,5.2v0
			c0,1.1-0.5,3.3-1.2,4C70,96.8,67.8,97.2,66.7,97.2z"/>
		<path class="st167" d="M67.3,97.2h-1.2c-2.2,0-4-3-4-5.2v-1.2c0-2.2,3-4,5.2-4h1.2c2.2,0,4,3,4,5.2v0c0,1.1-0.5,3.3-1.2,4
			C70.6,96.8,68.4,97.2,67.3,97.2z"/>
		<path class="st168" d="M67.8,97.2h-1.2c-2.2,0-4-3-4-5.2v-1.2c0-2.2,3-4,5.2-4h1.2c2.2,0,4,3,4,5.2v0c0,1.1-0.5,3.3-1.2,4.1
			C71.2,96.8,68.9,97.2,67.8,97.2z"/>
		<path class="st169" d="M68.4,97.2h-1.3c-2.2,0-4-3.1-4-5.2v-1.3c0-2.2,3.1-4,5.2-4h1.3c2.2,0,4,3.1,4,5.2v0c0,1.1-0.4,3.4-1.2,4.1
			C71.7,96.8,69.5,97.2,68.4,97.2z"/>
		<path class="st170" d="M69,97.2h-1.3c-2.2,0-3.9-3.1-3.9-5.2v-1.3c0-2.2,3.1-3.9,5.2-3.9h1.3c2.2,0,3.9,3.1,3.9,5.2v0
			c0,1.1-0.4,3.4-1.1,4.1S70,97.2,69,97.2z"/>
		<path class="st171" d="M69.5,97.2h-1.4c-2.1,0-3.9-3.1-3.9-5.2v-1.4c0-2.1,3.1-3.9,5.2-3.9h1.4c2.1,0,3.9,3.1,3.9,5.2v0
			c0,1.1-0.4,3.4-1.1,4.1S70.6,97.2,69.5,97.2z"/>
		<path class="st172" d="M70.1,97.2h-1.4c-2.1,0-3.8-3.1-3.8-5.2v-1.4c0-2.1,3.1-3.8,5.2-3.8h1.4c2.1,0,3.8,3.1,3.8,5.2v0
			c0,1.1-0.4,3.4-1.1,4.1C73.5,96.8,71.1,97.2,70.1,97.2z"/>
		<path class="st173" d="M70.6,97.2h-1.5c-2.1,0-3.8-3.2-3.8-5.2v-1.5c0-2.1,3.2-3.8,5.2-3.8h1.5c2.1,0,3.8,3.2,3.8,5.2v0
			c0,1-0.4,3.4-1.1,4.1C74.1,96.8,71.7,97.2,70.6,97.2z"/>
		<path class="st174" d="M71.2,97.2h-1.5c-2.1,0-3.7-3.2-3.7-5.2v-1.5c0-2.1,3.2-3.7,5.2-3.7h1.5c2.1,0,3.7,3.2,3.7,5.2v0
			c0,1-0.4,3.5-1.1,4.1C74.7,96.8,72.2,97.2,71.2,97.2z"/>
		<path class="st175" d="M71.8,97.2h-1.5c-2,0-3.7-3.2-3.7-5.2v-1.5c0-2,3.2-3.7,5.2-3.7h1.5c2,0,3.7,3.2,3.7,5.2v0
			c0,1-0.4,3.5-1.1,4.2S72.8,97.2,71.8,97.2z"/>
		<path class="st175" d="M72.3,97.2h-1.6c-2,0-3.6-3.2-3.6-5.2v-1.6c0-2,3.2-3.6,5.2-3.6h1.6c2,0,3.6,3.2,3.6,5.2v0
			c0,1-0.4,3.5-1.1,4.2S73.3,97.2,72.3,97.2z"/>
		<path class="st176" d="M72.9,97.2h-1.6c-2,0-3.6-3.3-3.6-5.2v-1.6c0-2,3.3-3.6,5.2-3.6h1.6c2,0,3.6,3.3,3.6,5.2v0
			c0,1-0.4,3.5-1.1,4.2C76.4,96.8,73.9,97.2,72.9,97.2z"/>
		<path class="st176" d="M73.5,97.2h-1.7c-2,0-3.5-3.3-3.5-5.2v-1.7c0-2,3.3-3.5,5.2-3.5h1.7c2,0,3.5,3.3,3.5,5.2v0
			c0,1-0.4,3.5-1,4.2C77,96.8,74.4,97.2,73.5,97.2z"/>
		<path class="st177" d="M74,97.2h-1.7c-1.9,0-3.5-3.3-3.5-5.2v-1.7c0-1.9,3.3-3.5,5.2-3.5h1.7c1.9,0,3.5,3.3,3.5,5.2v0
			c0,1-0.4,3.6-1,4.2C77.6,96.8,75,97.2,74,97.2z"/>
		<path class="st178" d="M74.6,97.2h-1.8c-1.9,0-3.5-3.3-3.5-5.2v-1.8c0-1.9,3.3-3.5,5.2-3.5h1.8c1.9,0,3.5,3.3,3.5,5.2v0
			c0,1-0.4,3.6-1,4.2C78.2,96.8,75.5,97.2,74.6,97.2z"/>
		<path class="st179" d="M75.2,97.2h-1.8c-1.9,0-3.4-3.4-3.4-5.2v-1.8c0-1.9,3.4-3.4,5.2-3.4H77c1.9,0,3.4,3.4,3.4,5.2v0
			c0,0.9-0.4,3.6-1,4.2C78.8,96.8,76.1,97.2,75.2,97.2z"/>
		<path class="st179" d="M75.7,97.2h-1.9c-1.9,0-3.4-3.4-3.4-5.2v-1.9c0-1.9,3.4-3.4,5.2-3.4h1.9c1.9,0,3.4,3.4,3.4,5.2v0
			c0,0.9-0.4,3.6-1,4.2C79.3,96.9,76.6,97.2,75.7,97.2z"/>
		<path class="st180" d="M76.3,97.2h-1.9c-1.8,0-3.3-3.4-3.3-5.2v-1.9c0-1.8,3.4-3.3,5.2-3.3h1.9c1.8,0,3.3,3.4,3.3,5.2v0
			c0,0.9-0.4,3.7-1,4.3C79.9,96.9,77.2,97.2,76.3,97.2z"/>
		<path class="st180" d="M76.8,97.2h-2c-1.8,0-3.3-3.4-3.3-5.2v-2c0-1.8,3.4-3.3,5.2-3.3h2c1.8,0,3.3,3.4,3.3,5.2v0
			c0,0.9-0.4,3.7-1,4.3C80.5,96.9,77.7,97.2,76.8,97.2z"/>
		<path class="st181" d="M77.4,97.2h-2c-1.8,0-3.2-3.5-3.2-5.2v-2c0-1.8,3.5-3.2,5.2-3.2h2c1.8,0,3.2,3.5,3.2,5.2v0
			c0,0.9-0.4,3.7-0.9,4.3C81.1,96.9,78.3,97.2,77.4,97.2z"/>
		<path class="st182" d="M78,97.2h-2c-1.8,0-3.2-3.5-3.2-5.2v-2c0-1.8,3.5-3.2,5.2-3.2h2c1.8,0,3.2,3.5,3.2,5.2v0
			c0,0.9-0.4,3.7-0.9,4.3S78.8,97.2,78,97.2z"/>
		<path class="st183" d="M78.5,97.2h-2.1c-1.7,0-3.1-3.5-3.1-5.2v-2.1c0-1.7,3.5-3.1,5.2-3.1h2.1c1.7,0,3.1,3.5,3.1,5.2v0
			c0,0.9-0.4,3.7-0.9,4.3S79.4,97.2,78.5,97.2z"/>
		<path class="st183" d="M79.1,97.2H77c-1.7,0-3.1-3.5-3.1-5.2v-2.1c0-1.7,3.5-3.1,5.2-3.1h2.1c1.7,0,3.1,3.5,3.1,5.2v0
			c0,0.9-0.3,3.8-0.9,4.3S79.9,97.2,79.1,97.2z"/>
		<path class="st184" d="M79.7,97.2h-2.2c-1.7,0-3-3.6-3-5.2v-2.2c0-1.7,3.6-3,5.2-3h2.2c1.7,0,3,3.6,3,5.2v0c0,0.8-0.3,3.8-0.9,4.3
			S80.5,97.2,79.7,97.2z"/>
		<path class="st185" d="M80.2,97.2H78c-1.7,0-3-3.6-3-5.2v-2.2c0-1.7,3.6-3,5.2-3h2.2c1.7,0,3,3.6,3,5.2v0c0,0.8-0.3,3.8-0.9,4.4
			S81,97.2,80.2,97.2z"/>
		<path class="st185" d="M80.8,97.2h-2.3c-1.6,0-3-3.6-3-5.2v-2.3c0-1.6,3.6-3,5.2-3h2.3c1.6,0,3,3.6,3,5.2v0c0,0.8-0.3,3.8-0.9,4.4
			S81.6,97.2,80.8,97.2z"/>
		<path class="st186" d="M81.3,97.2H79c-1.6,0-2.9-3.6-2.9-5.2v-2.3c0-1.6,3.6-2.9,5.2-2.9h2.3c1.6,0,2.9,3.6,2.9,5.2v0
			c0,0.8-0.3,3.8-0.9,4.4C85.2,96.9,82.1,97.2,81.3,97.2z"/>
		<path class="st186" d="M81.9,97.2h-2.4c-1.6,0-2.9-3.7-2.9-5.2v-2.4c0-1.6,3.7-2.9,5.2-2.9h2.4c1.6,0,2.9,3.7,2.9,5.2v0
			c0,0.8-0.3,3.9-0.8,4.4S82.7,97.2,81.9,97.2z"/>
		<path class="st187" d="M82.5,97.2h-2.4c-1.6,0-2.8-3.7-2.8-5.2v-2.4c0-1.6,3.7-2.8,5.2-2.8h2.4c1.6,0,2.8,3.7,2.8,5.2v0
			c0,0.8-0.3,3.9-0.8,4.4S83.2,97.2,82.5,97.2z"/>
		<path class="st187" d="M83,97.2h-2.5c-1.5,0-2.8-3.7-2.8-5.2v-2.5c0-1.5,3.7-2.8,5.2-2.8h2.5c1.5,0,2.8,3.7,2.8,5.2v0
			c0,0.8-0.3,3.9-0.8,4.4S83.8,97.2,83,97.2z"/>
		<path class="st188" d="M83.6,97.2h-2.5c-1.5,0-2.7-3.7-2.7-5.2v-2.5c0-1.5,3.7-2.7,5.2-2.7h2.5c1.5,0,2.7,3.7,2.7,5.2v0
			c0,0.8-0.3,3.9-0.8,4.4S84.3,97.2,83.6,97.2z"/>
		<path class="st189" d="M84.2,97.2h-2.5c-1.5,0-2.7-3.8-2.7-5.2v-2.5c0-1.5,3.8-2.7,5.2-2.7h2.5c1.5,0,2.7,3.8,2.7,5.2v0
			c0,0.7-0.3,4-0.8,4.4S84.9,97.2,84.2,97.2z"/>
		<path class="st190" d="M84.7,97.2h-2.6c-1.5,0-2.6-3.8-2.6-5.2v-2.6c0-1.5,3.8-2.6,5.2-2.6h2.6c1.5,0,2.6,3.8,2.6,5.2v0
			c0,0.7-0.3,4-0.8,4.5C88.7,96.9,85.5,97.2,84.7,97.2z"/>
		<path class="st190" d="M85.3,97.2h-2.6c-1.4,0-2.6-3.8-2.6-5.2v-2.6c0-1.4,3.8-2.6,5.2-2.6h2.6c1.4,0,2.6,3.8,2.6,5.2v0
			c0,0.7-0.3,4-0.8,4.5C89.3,96.9,86,97.2,85.3,97.2z"/>
		<path class="st191" d="M85.9,97.2h-2.7c-1.4,0-2.5-3.8-2.5-5.2v-2.7c0-1.4,3.8-2.5,5.2-2.5h2.7c1.4,0,2.5,3.8,2.5,5.2v0
			c0,0.7-0.3,4-0.7,4.5C89.9,96.9,86.6,97.2,85.9,97.2z"/>
		<path class="st191" d="M86.4,97.2h-2.7c-1.4,0-2.5-3.9-2.5-5.2v-2.7c0-1.4,3.9-2.5,5.2-2.5h2.7c1.4,0,2.5,3.9,2.5,5.2v0
			c0,0.7-0.3,4-0.7,4.5C90.5,96.9,87.1,97.2,86.4,97.2z"/>
		<path class="st191" d="M87,97.2h-2.8c-1.4,0-2.5-3.9-2.5-5.2v-2.8c0-1.4,3.9-2.5,5.2-2.5h2.8c1.4,0,2.5,3.9,2.5,5.2v0
			c0,0.7-0.3,4.1-0.7,4.5C91,97,87.7,97.2,87,97.2z"/>
		<path class="st192" d="M87.5,97.2h-2.8c-1.3,0-2.4-3.9-2.4-5.2v-2.8c0-1.3,3.9-2.4,5.2-2.4h2.8c1.3,0,2.4,3.9,2.4,5.2v0
			c0,0.7-0.3,4.1-0.7,4.5C91.6,97,88.2,97.2,87.5,97.2z"/>
		<path class="st192" d="M88.1,97.2h-2.9c-1.3,0-2.4-3.9-2.4-5.2v-2.9c0-1.3,3.9-2.4,5.2-2.4H91c1.3,0,2.4,3.9,2.4,5.2v0
			c0,0.7-0.3,4.1-0.7,4.5C92.2,97,88.8,97.2,88.1,97.2z"/>
		<path class="st193" d="M88.7,97.2h-2.9c-1.3,0-2.3-4-2.3-5.2v-2.9c0-1.3,4-2.3,5.2-2.3h2.9c1.3,0,2.3,4,2.3,5.2v0
			c0,0.6-0.3,4.1-0.7,4.6C92.8,97,89.3,97.2,88.7,97.2z"/>
		<path class="st194" d="M89.2,97.2h-3c-1.3,0-2.3-4-2.3-5.2v-3c0-1.3,4-2.3,5.2-2.3h3c1.3,0,2.3,4,2.3,5.2v0c0,0.6-0.3,4.2-0.7,4.6
			C93.4,97,89.9,97.2,89.2,97.2z"/>
		<path class="st195" d="M89.8,97.2h-3c-1.2,0-2.2-4-2.2-5.2v-3c0-1.2,4-2.2,5.2-2.2h3c1.2,0,2.2,4,2.2,5.2v0c0,0.6-0.3,4.2-0.7,4.6
			C94,97,90.4,97.2,89.8,97.2z"/>
		<path class="st195" d="M90.4,97.2h-3c-1.2,0-2.2-4-2.2-5.2v-3c0-1.2,4-2.2,5.2-2.2h3c1.2,0,2.2,4,2.2,5.2v0c0,0.6-0.2,4.2-0.6,4.6
			S91,97.2,90.4,97.2z"/>
		<path class="st196" d="M90.9,97.2h-3.1c-1.2,0-2.1-4.1-2.1-5.2l0-3.1c0-1.2,4.1-2.1,5.2-2.1H94c1.2,0,2.1,4.1,2.1,5.2v0
			c0,0.6-0.2,4.2-0.6,4.6C95.1,97,91.5,97.2,90.9,97.2z"/>
		<path class="st196" d="M91.5,97.2h-3.1c-1.2,0-2.1-4.1-2.1-5.2v-3.1c0-1.2,4.1-2.1,5.2-2.1h3.1c1.2,0,2.1,4.1,2.1,5.2v0
			c0,0.6-0.2,4.2-0.6,4.6C95.7,97,92.1,97.2,91.5,97.2z"/>
		<path class="st197" d="M92,97.2h-3.2c-1.1,0-2-4.1-2-5.2v-3.2c0-1.1,4.1-2,5.2-2h3.2c1.1,0,2,4.1,2,5.2v0c0,0.6-0.2,4.3-0.6,4.6
			S92.6,97.2,92,97.2z"/>
		<path class="st198" d="M92.6,97.2h-3.2c-1.1,0-2-4.1-2-5.2v-3.2c0-1.1,4.1-2,5.2-2h3.2c1.1,0,2,4.1,2,5.2v0c0,0.6-0.2,4.3-0.6,4.6
			S93.2,97.2,92.6,97.2z"/>
		<path class="st199" d="M93.2,97.2h-3.3c-1.1,0-2-4.2-2-5.2v-3.3c0-1.1,4.2-2,5.2-2h3.3c1.1,0,2,4.2,2,5.2v0c0,0.5-0.2,4.3-0.6,4.7
			S93.7,97.2,93.2,97.2z"/>
		<path class="st199" d="M93.7,97.2h-3.3c-1.1,0-1.9-4.2-1.9-5.2v-3.3c0-1.1,4.2-1.9,5.2-1.9h3.3c1.1,0,1.9,4.2,1.9,5.2v0
			c0,0.5-0.2,4.3-0.6,4.7S94.3,97.2,93.7,97.2z"/>
		<path class="st200" d="M94.3,97.2h-3.4c-1,0-1.9-4.2-1.9-5.2v-3.4c0-1,4.2-1.9,5.2-1.9h3.4c1,0,1.9,4.2,1.9,5.2v0
			c0,0.5-0.2,4.3-0.5,4.7C98.6,97,94.8,97.2,94.3,97.2z"/>
		<path class="st200" d="M94.9,97.2h-3.4c-1,0-1.8-4.2-1.8-5.2v-3.4c0-1,4.2-1.8,5.2-1.8h3.4c1,0,1.8,4.2,1.8,5.2v0
			c0,0.5-0.2,4.4-0.5,4.7C99.2,97,95.4,97.2,94.9,97.2z"/>
		<path class="st201" d="M95.4,97.2H92c-1,0-1.8-4.3-1.8-5.2v-3.5c0-1,4.3-1.8,5.2-1.8h3.5c1,0,1.8,4.3,1.8,5.2v0
			c0,0.5-0.2,4.4-0.5,4.7C99.8,97,95.9,97.2,95.4,97.2z"/>
		<path class="st202" d="M96,97.2h-3.5c-1,0-1.7-4.3-1.7-5.2v-3.5c0-1,4.3-1.7,5.2-1.7h3.5c1,0,1.7,4.3,1.7,5.2v0
			c0,0.5-0.2,4.4-0.5,4.7C100.4,97,96.5,97.2,96,97.2z"/>
		<path class="st203" d="M96.6,97.2H93c-0.9,0-1.7-4.3-1.7-5.2v-3.5c0-0.9,4.3-1.7,5.2-1.7h3.5c0.9,0,1.7,4.3,1.7,5.2v0
			c0,0.5-0.2,4.4-0.5,4.7C101,97,97,97.2,96.6,97.2z"/>
		<path class="st203" d="M97.1,97.2h-3.6c-0.9,0-1.6-4.3-1.6-5.2l0-3.6c0-0.9,4.3-1.6,5.2-1.6h3.6c0.9,0,1.6,4.3,1.6,5.2v0
			c0,0.5-0.2,4.5-0.5,4.8C101.6,97,97.6,97.2,97.1,97.2z"/>
		<path class="st204" d="M97.7,97.2H94c-0.9,0-1.6-4.4-1.6-5.2v-3.6c0-0.9,4.4-1.6,5.2-1.6h3.6c0.9,0,1.6,4.4,1.6,5.2v0
			c0,0.4-0.2,4.5-0.5,4.8C102.2,97.1,98.1,97.2,97.7,97.2z"/>
		<path class="st205" d="M98.2,97.2h-3.7c-0.9,0-1.5-4.4-1.5-5.2v-3.7c0-0.9,4.4-1.5,5.2-1.5h3.7c0.9,0,1.5,4.4,1.5,5.2v0
			c0,0.4-0.2,4.5-0.5,4.8C102.7,97.1,98.7,97.2,98.2,97.2z"/>
		<path class="st205" d="M98.8,97.2h-3.7c-0.8,0-1.5-4.4-1.5-5.2v-3.7c0-0.8,4.4-1.5,5.2-1.5h3.7c0.8,0,1.5,4.4,1.5,5.2v0
			c0,0.4-0.2,4.5-0.4,4.8S99.2,97.2,98.8,97.2z"/>
		<path class="st206" d="M99.4,97.2h-3.8c-0.8,0-1.5-4.4-1.5-5.2v-3.8c0-0.8,4.4-1.5,5.2-1.5h3.8c0.8,0,1.5,4.4,1.5,5.2v0
			c0,0.4-0.2,4.5-0.4,4.8S99.8,97.2,99.4,97.2z"/>
		<path class="st206" d="M99.9,97.2h-3.8c-0.8,0-1.4-4.5-1.4-5.2v-3.8c0-0.8,4.5-1.4,5.2-1.4h3.8c0.8,0,1.4,4.5,1.4,5.2v0
			c0,0.4-0.2,4.6-0.4,4.8S100.3,97.2,99.9,97.2z"/>
		<path class="st207" d="M100.5,97.2h-3.9c-0.8,0-1.4-4.5-1.4-5.2v-3.9c0-0.8,4.5-1.4,5.2-1.4h3.9c0.8,0,1.4,4.5,1.4,5.2l0,0
			c0,0.4-0.2,4.6-0.4,4.8C105.1,97.1,100.9,97.2,100.5,97.2z"/>
		<path class="st208" d="M101.1,97.2h-3.9c-0.7,0-1.3-4.5-1.3-5.2v-3.9c0-0.7,4.5-1.3,5.2-1.3h3.9c0.7,0,1.3,4.5,1.3,5.2l0,0
			c0,0.4-0.1,4.6-0.4,4.8C105.7,97.1,101.4,97.2,101.1,97.2z"/>
		<path class="st209" d="M101.6,97.2h-4c-0.7,0-1.3-4.5-1.3-5.2v-4c0-0.7,4.5-1.3,5.2-1.3h4c0.7,0,1.3,4.5,1.3,5.2l0,0
			c0,0.4-0.1,4.6-0.4,4.9C106.2,97.1,102,97.2,101.6,97.2z"/>
		<path class="st209" d="M102.2,97.2h-4c-0.7,0-1.2-4.6-1.2-5.2v-4c0-0.7,4.6-1.2,5.2-1.2h4c0.7,0,1.2,4.6,1.2,5.2l0,0
			c0,0.3-0.1,4.6-0.4,4.9C106.8,97.1,102.5,97.2,102.2,97.2z"/>
		<path class="st210" d="M102.7,97.2h-4c-0.7,0-1.2-4.6-1.2-5.2v-4c0-0.7,4.6-1.2,5.2-1.2h4c0.7,0,1.2,4.6,1.2,5.2l0,0
			c0,0.3-0.1,4.7-0.3,4.9S103.1,97.2,102.7,97.2z"/>
		<path class="st210" d="M103.3,97.2h-4.1c-0.6,0-1.1-4.6-1.1-5.2l0-4.1c0-0.6,4.6-1.1,5.2-1.1h4.1c0.6,0,1.1,4.6,1.1,5.2l0,0
			c0,0.3-0.1,4.7-0.3,4.9C108,97.1,103.6,97.2,103.3,97.2z"/>
		<path class="st210" d="M103.9,97.2h-4.1c-0.6,0-1.1-4.6-1.1-5.2v-4.1c0-0.6,4.6-1.1,5.2-1.1h4.1c0.6,0,1.1,4.6,1.1,5.2l0,0
			c0,0.3-0.1,4.7-0.3,4.9C108.6,97.1,104.2,97.2,103.9,97.2z"/>
		<path class="st211" d="M104.4,97.2h-4.2c-0.6,0-1-4.7-1-5.2v-4.2c0-0.6,4.7-1,5.2-1h4.2c0.6,0,1,4.7,1,5.2l0,0
			c0,0.3-0.1,4.7-0.3,4.9C109.2,97.1,104.7,97.2,104.4,97.2z"/>
		<path class="st211" d="M105,97.2h-4.2c-0.6,0-1-4.7-1-5.2v-4.2c0-0.6,4.7-1,5.2-1h4.2c0.6,0,1,4.7,1,5.2l0,0
			c0,0.3-0.1,4.8-0.3,4.9C109.8,97.1,105.3,97.2,105,97.2z"/>
		<path class="st212" d="M105.6,97.2h-4.3c-0.5,0-1-4.7-1-5.2v-4.3c0-0.5,4.7-1,5.2-1h4.3c0.5,0,1,4.7,1,5.2l0,0
			c0,0.3-0.1,4.8-0.3,5C110.3,97.1,105.8,97.2,105.6,97.2z"/>
		<path class="st213" d="M106.1,97.2h-4.3c-0.5,0-0.9-4.7-0.9-5.2v-4.3c0-0.5,4.7-0.9,5.2-0.9h4.3c0.5,0,0.9,4.7,0.9,5.2l0,0
			c0,0.3-0.1,4.8-0.3,5C110.9,97.1,106.4,97.2,106.1,97.2z"/>
		<path class="st214" d="M106.7,97.2h-4.4c-0.5,0-0.9-4.8-0.9-5.2v-4.4c0-0.5,4.8-0.9,5.2-0.9h4.4c0.5,0,0.9,4.8,0.9,5.2l0,0
			c0,0.2-0.1,4.8-0.3,5C111.5,97.1,106.9,97.2,106.7,97.2z"/>
		<path class="st214" d="M107.3,97.2h-4.4c-0.5,0-0.8-4.8-0.8-5.2v-4.4c0-0.5,4.8-0.8,5.2-0.8h4.4c0.5,0,0.8,4.8,0.8,5.2l0,0
			c0,0.2-0.1,4.8-0.2,5C112.1,97.1,107.5,97.2,107.3,97.2z"/>
		<path class="st215" d="M107.8,97.2h-4.5c-0.4,0-0.8-4.8-0.8-5.2v-4.5c0-0.4,4.8-0.8,5.2-0.8h4.5c0.4,0,0.8,4.8,0.8,5.2l0,0
			c0,0.2-0.1,4.9-0.2,5S108,97.2,107.8,97.2z"/>
		<path class="st215" d="M108.4,97.2h-4.5c-0.4,0-0.7-4.8-0.7-5.2v-4.5c0-0.4,4.8-0.7,5.2-0.7h4.5c0.4,0,0.7,4.8,0.7,5.2l0,0
			c0,0.2-0.1,4.9-0.2,5S108.6,97.2,108.4,97.2z"/>
		<path class="st216" d="M108.9,97.2h-4.6c-0.4,0-0.7-4.9-0.7-5.2v-4.6c0-0.4,4.9-0.7,5.2-0.7h4.6c0.4,0,0.7,4.9,0.7,5.2l0,0
			c0,0.2-0.1,4.9-0.2,5S109.1,97.2,108.9,97.2z"/>
		<path class="st217" d="M109.5,97.2h-4.6c-0.4,0-0.6-4.9-0.6-5.2v-4.6c0-0.4,4.9-0.6,5.2-0.6h4.6c0.4,0,0.6,4.9,0.6,5.2l0,0
			c0,0.2-0.1,4.9-0.2,5S109.7,97.2,109.5,97.2z"/>
		<path class="st217" d="M110.1,97.2h-4.6c-0.3,0-0.6-4.9-0.6-5.2v-4.6c0-0.3,4.9-0.6,5.2-0.6h4.6c0.3,0,0.6,4.9,0.6,5.2l0,0
			c0,0.2-0.1,5-0.2,5.1C115,97.2,110.2,97.2,110.1,97.2z"/>
		<path class="st218" d="M110.6,97.2h-4.7c-0.3,0-0.5-4.9-0.5-5.2v-4.7c0-0.3,4.9-0.5,5.2-0.5h4.7c0.3,0,0.5,4.9,0.5,5.2l0,0
			c0,0.2-0.1,5-0.2,5.1C115.6,97.2,110.8,97.2,110.6,97.2z"/>
		<path class="st219" d="M111.2,97.2h-4.7c-0.3,0-0.5-5-0.5-5.2v-4.7c0-0.3,5-0.5,5.2-0.5h4.7c0.3,0,0.5,5,0.5,5.2l0,0
			c0,0.1-0.1,5-0.1,5.1C116.2,97.2,111.3,97.2,111.2,97.2z"/>
		<path class="st220" d="M111.8,97.2H107c-0.3,0-0.5-5-0.5-5.2v-4.8c0-0.3,5-0.5,5.2-0.5h4.8c0.3,0,0.5,5,0.5,5.2l0,0
			c0,0.1-0.1,5-0.1,5.1C116.8,97.2,111.9,97.2,111.8,97.2z"/>
		<path class="st220" d="M112.3,97.2h-4.8c-0.2,0-0.4-5-0.4-5.2v-4.8c0-0.2,5-0.4,5.2-0.4h4.8c0.2,0,0.4,5,0.4,5.2l0,0
			c0,0.1,0,5-0.1,5.1C117.4,97.2,112.4,97.2,112.3,97.2z"/>
		<path class="st221" d="M112.9,97.2H108c-0.2,0-0.4-5-0.4-5.2v-4.9c0-0.2,5-0.4,5.2-0.4h4.9c0.2,0,0.4,5,0.4,5.2l0,0
			c0,0.1,0,5.1-0.1,5.1C117.9,97.2,113,97.2,112.9,97.2z"/>
		<path class="st221" d="M113.4,97.2h-4.9c-0.2,0-0.3-5.1-0.3-5.2v-4.9c0-0.2,5.1-0.3,5.2-0.3h4.9c0.2,0,0.3,5.1,0.3,5.2l0,0
			c0,0.1,0,5.1-0.1,5.1C118.5,97.2,113.5,97.2,113.4,97.2z"/>
		<path class="st222" d="M114,97.2h-5c-0.2,0-0.3-5.1-0.3-5.2v-5c0-0.2,5.1-0.3,5.2-0.3h5c0.2,0,0.3,5.1,0.3,5.2l0,0
			c0,0.1,0,5.1-0.1,5.2C119.1,97.2,114.1,97.2,114,97.2z"/>
		<path class="st139" d="M114.6,97.2h-5c-0.1,0-0.2-5.1-0.2-5.2v-5c0-0.1,5.1-0.2,5.2-0.2h5c0.1,0,0.2,5.1,0.2,5.2l0,0
			c0,0.1,0,5.1-0.1,5.2C119.7,97.2,114.6,97.2,114.6,97.2z"/>
		<path class="st139" d="M115.1,97.2h-5.1c-0.1,0-0.2-5.1-0.2-5.2v-5.1c0-0.1,5.1-0.2,5.2-0.2h5.1c0.1,0,0.2,5.1,0.2,5.2l0,0
			c0,0.1,0,5.1-0.1,5.2C120.3,97.2,115.2,97.2,115.1,97.2z"/>
		<path class="st223" d="M115.7,97.2h-5.1c-0.1,0-0.1-5.2-0.1-5.2v-5.1c0-0.1,5.2-0.1,5.2-0.1h5.1c0.1,0,0.1,5.2,0.1,5.2l0,0
			c0,0,0,5.2,0,5.2C120.9,97.2,115.7,97.2,115.7,97.2z"/>
		<path class="st223" d="M116.3,97.2h-5.1c-0.1,0-0.1-5.2-0.1-5.2v-5.1c0-0.1,5.2-0.1,5.2-0.1h5.1c0.1,0,0.1,5.2,0.1,5.2l0,0
			c0,0,0,5.2,0,5.2S116.3,97.2,116.3,97.2z"/>
		<path class="st140" d="M116.8,97.2h-5.2c0,0,0-5.2,0-5.2v-5.2c0,0,5.2,0,5.2,0h5.2c0,0,0,5.2,0,5.2l0,0c0,0,0,5.2,0,5.2
			S116.8,97.2,116.8,97.2z"/>
		<polygon class="st1" points="122.6,97.2 117.4,97.2 112.2,97.2 112.2,92 112.2,86.8 117.4,86.8 122.6,86.8 122.6,92 		"/>
	</g>
	<g>
		<path class="st224" d="M127.4,65.5L127.4,65.5c2.9,0,5.2,2.4,5.2,5.2v0c0,2.9-2.4,5.2-5.2,5.2h0c-2.9,0-5.2-2.4-5.2-5.2v0
			C122.2,67.9,124.5,65.5,127.4,65.5z"/>
		<path class="st225" d="M127,76c-2.9,0-5.2-2.3-5.2-5.2v0c0-2.9,2.3-5.2,5.2-5.2h0c2.9,0,5.2,2.3,5.2,5.2v0
			C132.2,73.6,129.9,76,127,76L127,76z"/>
		<path class="st226" d="M126.6,76c-2.8,0-5.2-2.3-5.2-5.2v-0.1c0-2.8,2.3-5.2,5.2-5.2h0.1c2.8,0,5.2,2.3,5.2,5.2v0.1
			C131.8,73.6,129.5,76,126.6,76L126.6,76z"/>
		<path class="st227" d="M126.2,76c-2.8,0-5.2-2.3-5.2-5.1v-0.1c0-2.8,2.3-5.2,5.1-5.2h0.1c2.8,0,5.2,2.3,5.2,5.1v0.1
			C131.4,73.6,129.1,76,126.2,76L126.2,76z"/>
		<path class="st228" d="M125.8,76c-2.8,0-5.2-2.3-5.2-5.1v-0.1c0-2.8,2.3-5.2,5.1-5.2h0.1c2.8,0,5.2,2.3,5.2,5.1v0.1
			c0,2.8-2.3,5.2-5.1,5.2H125.8z"/>
		<path class="st229" d="M125.4,76c-2.8,0-5.2-2.3-5.2-5.1v-0.2c0-2.8,2.3-5.2,5.1-5.2h0.2c2.8,0,5.2,2.3,5.2,5.1v0.2
			c0,2.8-2.3,5.2-5.1,5.2H125.4z"/>
		<path class="st230" d="M125,76c-2.8,0-5.2-2.3-5.2-5v-0.2c0-2.8,2.3-5.2,5-5.2h0.2c2.8,0,5.2,2.3,5.2,5v0.2c0,2.8-2.3,5.2-5,5.2
			H125z"/>
		<path class="st231" d="M124.6,76c-2.8,0-5.2-2.3-5.2-5v-0.2c0-2.8,2.3-5.2,5-5.2h0.2c2.8,0,5.2,2.3,5.2,5v0.2c0,2.8-2.3,5.2-5,5.2
			H124.6z"/>
		<path class="st231" d="M124.2,76c-2.7,0-5.2-2.2-5.2-5v-0.3c0-2.7,2.2-5.2,5-5.2h0.3c2.7,0,5.2,2.2,5.2,5v0.3c0,2.7-2.2,5.2-5,5.2
			H124.2z"/>
		<path class="st232" d="M123.8,76c-2.7,0-5.2-2.2-5.2-4.9v-0.3c0-2.7,2.2-5.2,4.9-5.2h0.3c2.7,0,5.2,2.2,5.2,4.9v0.3
			c0,2.7-2.2,5.2-4.9,5.2H123.8z"/>
		<path class="st232" d="M123.4,76c-2.7,0-5.2-2.2-5.2-4.9v-0.3c0-2.7,2.2-5.2,4.9-5.2h0.3c2.7,0,5.2,2.2,5.2,4.9v0.3
			c0,2.7-2.2,5.2-4.9,5.2H123.4z"/>
		<path class="st233" d="M123,76c-2.7,0-5.2-2.2-5.2-4.9v-0.4c0-2.7,2.2-5.2,4.9-5.2h0.4c2.7,0,5.2,2.2,5.2,4.9v0.4
			c0,2.7-2.2,5.2-4.9,5.2H123z"/>
		<path class="st234" d="M122.6,76c-2.7,0-5.2-2.2-5.2-4.8v-0.4c0-2.7,2.2-5.2,4.8-5.2h0.4c2.7,0,5.2,2.2,5.2,4.8v0.4
			c0,2.7-2.2,5.2-4.8,5.2H122.6z"/>
		<path class="st234" d="M122.2,76c-2.6,0-5.2-2.2-5.2-4.8v-0.4c0-2.6,2.2-5.2,4.8-5.2h0.4c2.6,0,5.2,2.2,5.2,4.8v0.4
			c0,2.6-2.2,5.2-4.8,5.2H122.2z"/>
		<path class="st235" d="M121.8,76c-2.6,0-5.2-2.2-5.2-4.8v-0.4c0-2.6,2.2-5.2,4.8-5.2h0.4c2.6,0,5.2,2.2,5.2,4.8v0.4
			c0,2.6-2.2,5.2-4.8,5.2H121.8z"/>
		<path class="st236" d="M121.4,76c-2.6,0-5.2-2.1-5.2-4.8v-0.5c0-2.6,2.1-5.2,4.8-5.2h0.5c2.6,0,5.2,2.1,5.2,4.8v0.5
			c0,2.6-2.1,5.2-4.8,5.2H121.4z"/>
		<path class="st237" d="M121,76c-2.6,0-5.2-2.1-5.2-4.7v-0.5c0-2.6,2.1-5.2,4.7-5.2h0.5c2.6,0,5.2,2.1,5.2,4.7v0.5
			c0,2.6-2.1,5.2-4.7,5.2H121z"/>
		<path class="st237" d="M120.6,76c-2.6,0-5.2-2.1-5.2-4.7v-0.5c0-2.6,2.1-5.2,4.7-5.2h0.5c2.6,0,5.2,2.1,5.2,4.7v0.5
			c0,2.6-2.1,5.2-4.7,5.2H120.6z"/>
		<path class="st238" d="M120.2,76c-2.6,0-5.2-2.1-5.2-4.7v-0.6c0-2.6,2.1-5.2,4.7-5.2h0.6c2.6,0,5.2,2.1,5.2,4.7v0.6
			c0,2.6-2.1,5.2-4.7,5.2H120.2z"/>
		<path class="st239" d="M119.8,76c-2.5,0-5.2-2.1-5.2-4.6v-0.6c0-2.5,2.1-5.2,4.6-5.2h0.6c2.5,0,5.2,2.1,5.2,4.6v0.6
			c0,2.5-2.1,5.2-4.6,5.2H119.8z"/>
		<path class="st240" d="M119.4,76c-2.5,0-5.2-2.1-5.2-4.6v-0.6c0-2.5,2.1-5.2,4.6-5.2h0.6c2.5,0,5.2,2.1,5.2,4.6v0.6
			c0,2.5-2.1,5.2-4.6,5.2H119.4z"/>
		<path class="st241" d="M119.1,76c-2.5,0-5.2-2.1-5.2-4.6v-0.7c0-2.5,2.1-5.2,4.6-5.2h0.7c2.5,0,5.2,2.1,5.2,4.6v0.7
			c0,2.5-2.1,5.2-4.6,5.2H119.1z"/>
		<path class="st242" d="M118.7,76c-2.5,0-5.2-2-5.2-4.5v-0.7c0-2.5,2-5.2,4.5-5.2h0.7c2.5,0,5.2,2,5.2,4.5v0.7c0,2.5-2,5.2-4.5,5.2
			H118.7z"/>
		<path class="st243" d="M118.3,76c-2.5,0-5.2-2-5.2-4.5v-0.7c0-2.5,2-5.2,4.5-5.2h0.7c2.5,0,5.2,2,5.2,4.5v0.7c0,2.5-2,5.2-4.5,5.2
			H118.3z"/>
		<path class="st244" d="M117.9,76c-2.5,0-5.2-2-5.2-4.5v-0.8c0-2.5,2-5.2,4.5-5.2h0.8c2.5,0,5.2,2,5.2,4.5v0.8c0,2.5-2,5.2-4.5,5.2
			H117.9z"/>
		<path class="st245" d="M117.5,76c-2.4,0-5.2-2-5.2-4.4v-0.8c0-2.4,2-5.2,4.4-5.2h0.8c2.4,0,5.2,2,5.2,4.4v0.8c0,2.4-2,5.2-4.4,5.2
			H117.5z"/>
		<path class="st246" d="M117.1,76c-2.4,0-5.2-2-5.2-4.4v-0.8c0-2.4,2-5.2,4.4-5.2h0.8c2.4,0,5.2,2,5.2,4.4v0.8c0,2.4-2,5.2-4.4,5.2
			H117.1z"/>
		<path class="st247" d="M116.7,76c-2.4,0-5.2-2-5.2-4.4v-0.9c0-2.4,2-5.2,4.4-5.2h0.9c2.4,0,5.2,2,5.2,4.4v0.9c0,2.4-2,5.2-4.4,5.2
			H116.7z"/>
		<path class="st248" d="M116.3,76c-2.4,0-5.2-2-5.2-4.3v-0.9c0-2.4,2-5.2,4.3-5.2h0.9c2.4,0,5.2,2,5.2,4.3v0.9c0,2.4-2,5.2-4.3,5.2
			H116.3z"/>
		<path class="st249" d="M115.9,76c-2.4,0-5.2-1.9-5.2-4.3v-0.9c0-2.4,1.9-5.2,4.3-5.2h0.9c2.4,0,5.2,1.9,5.2,4.3v0.9
			c0,2.4-1.9,5.2-4.3,5.2H115.9z"/>
		<path class="st250" d="M115.5,76c-2.3,0-5.2-1.9-5.2-4.3v-1c0-2.3,1.9-5.2,4.3-5.2h1c2.3,0,5.2,1.9,5.2,4.3v1
			c0,2.3-1.9,5.2-4.3,5.2H115.5z"/>
		<path class="st251" d="M115.1,76c-2.3,0-5.2-1.9-5.2-4.2v-1c0-2.3,1.9-5.2,4.2-5.2h1c2.3,0,5.2,1.9,5.2,4.2v1
			c0,2.3-1.9,5.2-4.2,5.2H115.1z"/>
		<path class="st252" d="M114.7,76c-2.3,0-5.2-1.9-5.2-4.2v-1c0-2.3,1.9-5.2,4.2-5.2h1c2.3,0,5.2,1.9,5.2,4.2v1
			c0,2.3-1.9,5.2-4.2,5.2H114.7z"/>
		<path class="st253" d="M114.3,76c-2.3,0-5.2-1.9-5.2-4.2v-1.1c0-2.3,1.9-5.2,4.2-5.2h1.1c2.3,0,5.2,1.9,5.2,4.2v1.1
			c0,2.3-1.9,5.2-4.2,5.2H114.3z"/>
		<path class="st254" d="M113.9,76c-2.3,0-5.2-1.9-5.2-4.1v-1.1c0-2.3,1.9-5.2,4.1-5.2h1.1c2.3,0,5.2,1.9,5.2,4.1v1.1
			c0,2.3-1.9,5.2-4.1,5.2H113.9z"/>
		<path class="st255" d="M113.5,76c-2.3,0-5.2-1.8-5.2-4.1v-1.1c0-2.3,1.8-5.2,4.1-5.2h1.1c2.3,0,5.2,1.8,5.2,4.1v1.1
			c0,2.3-1.8,5.2-4.1,5.2H113.5z"/>
		<path class="st256" d="M113.1,76c-2.2,0-5.2-1.8-5.2-4.1v-1.2c0-2.2,1.8-5.2,4.1-5.2h1.2c2.2,0,5.2,1.8,5.2,4.1v1.2
			c0,2.2-1.8,5.2-4.1,5.2H113.1z"/>
		<path class="st257" d="M112.7,76c-2.2,0-5.2-1.8-5.2-4v-1.2c0-2.2,1.8-5.2,4-5.2h1.2c2.2,0,5.2,1.8,5.2,4v1.2c0,2.2-1.8,5.2-4,5.2
			H112.7z"/>
		<path class="st258" d="M112.3,76c-2.2,0-5.2-1.8-5.2-4v-1.2c0-2.2,1.8-5.2,4-5.2h1.2c2.2,0,5.2,1.8,5.2,4v1.2c0,2.2-1.8,5.2-4,5.2
			H112.3z"/>
		<path class="st259" d="M111.9,76c-2.2,0-5.2-1.8-5.2-4v-1.3c0-2.2,1.8-5.2,4-5.2h1.3c2.2,0,5.2,1.8,5.2,4v1.3c0,2.2-1.8,5.2-4,5.2
			H111.9z"/>
		<path class="st259" d="M111.5,76c-2.2,0-5.2-1.8-5.2-3.9v-1.3c0-2.2,1.8-5.2,3.9-5.2h1.3c2.2,0,5.2,1.8,5.2,3.9v1.3
			c0,2.2-1.8,5.2-3.9,5.2H111.5z"/>
		<path class="st259" d="M111.1,76c-2.2,0-5.2-1.8-5.2-3.9v-1.3c0-2.2,1.8-5.2,3.9-5.2h1.3c2.2,0,5.2,1.8,5.2,3.9v1.3
			c0,2.2-1.8,5.2-3.9,5.2H111.1z"/>
		<path class="st260" d="M110.7,76c-2.1,0-5.2-1.7-5.2-3.9v-1.3c0-2.1,1.7-5.2,3.9-5.2h1.3c2.1,0,5.2,1.7,5.2,3.9v1.3
			c0,2.1-1.7,5.2-3.9,5.2H110.7z"/>
		<path class="st260" d="M110.3,76c-2.1,0-5.2-1.7-5.2-3.9v-1.4c0-2.1,1.7-5.2,3.9-5.2h1.4c2.1,0,5.2,1.7,5.2,3.9v1.4
			c0,2.1-1.7,5.2-3.9,5.2H110.3z"/>
		<path class="st261" d="M109.9,76c-2.1,0-5.2-1.7-5.2-3.8v-1.4c0-2.1,1.7-5.2,3.8-5.2h1.4c2.1,0,5.2,1.7,5.2,3.8v1.4
			c0,2.1-1.7,5.2-3.8,5.2H109.9z"/>
		<path class="st261" d="M109.5,76c-2.1,0-5.2-1.7-5.2-3.8v-1.4c0-2.1,1.7-5.2,3.8-5.2h1.4c2.1,0,5.2,1.7,5.2,3.8v1.4
			c0,2.1-1.7,5.2-3.8,5.2H109.5z"/>
		<path class="st262" d="M109.1,76c-2.1,0-5.2-1.7-5.2-3.8v-1.5c0-2.1,1.7-5.2,3.8-5.2h1.5c2.1,0,5.2,1.7,5.2,3.8v1.5
			c0,2.1-1.7,5.2-3.8,5.2H109.1z"/>
		<path class="st263" d="M108.7,76c-2,0-5.2-1.7-5.2-3.7v-1.5c0-2,1.7-5.2,3.7-5.2h1.5c2,0,5.2,1.7,5.2,3.7v1.5c0,2-1.7,5.2-3.7,5.2
			H108.7z"/>
		<path class="st264" d="M108.3,76c-2,0-5.2-1.7-5.2-3.7v-1.5c0-2,1.7-5.2,3.7-5.2h1.5c2,0,5.2,1.7,5.2,3.7v1.5c0,2-1.7,5.2-3.7,5.2
			H108.3z"/>
		<path class="st264" d="M107.9,76c-2,0-5.2-1.6-5.2-3.7v-1.6c0-2,1.6-5.2,3.7-5.2h1.6c2,0,5.2,1.6,5.2,3.7v1.6c0,2-1.6,5.2-3.7,5.2
			H107.9z"/>
		<path class="st265" d="M107.5,76c-2,0-5.2-1.6-5.2-3.6v-1.6c0-2,1.6-5.2,3.6-5.2h1.6c2,0,5.2,1.6,5.2,3.6v1.6c0,2-1.6,5.2-3.6,5.2
			H107.5z"/>
		<path class="st265" d="M107.1,76c-2,0-5.2-1.6-5.2-3.6v-1.6c0-2,1.6-5.2,3.6-5.2h1.6c2,0,5.2,1.6,5.2,3.6v1.6c0,2-1.6,5.2-3.6,5.2
			H107.1z"/>
		<path class="st266" d="M106.7,76c-2,0-5.2-1.6-5.2-3.6v-1.7c0-2,1.6-5.2,3.6-5.2h1.7c2,0,5.2,1.6,5.2,3.6v1.7c0,2-1.6,5.2-3.6,5.2
			H106.7z"/>
		<path class="st266" d="M106.3,76c-1.9,0-5.2-1.6-5.2-3.5v-1.7c0-1.9,1.6-5.2,3.5-5.2h1.7c1.9,0,5.2,1.6,5.2,3.5v1.7
			c0,1.9-1.6,5.2-3.5,5.2H106.3z"/>
		<path class="st267" d="M105.9,76c-1.9,0-5.2-1.6-5.2-3.5v-1.7c0-1.9,1.6-5.2,3.5-5.2h1.7c1.9,0,5.2,1.6,5.2,3.5v1.7
			c0,1.9-1.6,5.2-3.5,5.2H105.9z"/>
		<path class="st267" d="M105.5,76c-1.9,0-5.2-1.6-5.2-3.5v-1.8c0-1.9,1.6-5.2,3.5-5.2h1.8c1.9,0,5.2,1.6,5.2,3.5v1.8
			c0,1.9-1.6,5.2-3.5,5.2H105.5z"/>
		<path class="st268" d="M105.1,76c-1.9,0-5.2-1.5-5.2-3.4v-1.8c0-1.9,1.5-5.2,3.4-5.2h1.8c1.9,0,5.2,1.5,5.2,3.4v1.8
			c0,1.9-1.5,5.2-3.4,5.2H105.1z"/>
		<path class="st268" d="M104.7,76c-1.9,0-5.2-1.5-5.2-3.4v-1.8c0-1.9,1.5-5.2,3.4-5.2h1.8c1.9,0,5.2,1.5,5.2,3.4v1.8
			c0,1.9-1.5,5.2-3.4,5.2H104.7z"/>
		<path class="st269" d="M104.4,76c-1.9,0-5.2-1.5-5.2-3.4v-1.9c0-1.9,1.5-5.2,3.4-5.2h1.9c1.9,0,5.2,1.5,5.2,3.4v1.9
			c0,1.9-1.5,5.2-3.4,5.2H104.4z"/>
		<path class="st269" d="M104,76c-1.8,0-5.2-1.5-5.2-3.3v-1.9c0-1.8,1.5-5.2,3.3-5.2h1.9c1.8,0,5.2,1.5,5.2,3.3v1.9
			c0,1.8-1.5,5.2-3.3,5.2H104z"/>
		<path class="st270" d="M103.6,76c-1.8,0-5.2-1.5-5.2-3.3v-1.9c0-1.8,1.5-5.2,3.3-5.2h1.9c1.8,0,5.2,1.5,5.2,3.3v1.9
			c0,1.8-1.5,5.2-3.3,5.2H103.6z"/>
		<path class="st271" d="M103.2,76c-1.8,0-5.2-1.5-5.2-3.3v-2c0-1.8,1.5-5.2,3.3-5.2h2c1.8,0,5.2,1.5,5.2,3.3v2
			c0,1.8-1.5,5.2-3.3,5.2H103.2z"/>
		<path class="st272" d="M102.8,76c-1.8,0-5.2-1.5-5.2-3.2v-2c0-1.8,1.5-5.2,3.2-5.2h2c1.8,0,5.2,1.5,5.2,3.2v2
			c0,1.8-1.5,5.2-3.2,5.2H102.8z"/>
		<path class="st272" d="M102.4,76c-1.8,0-5.2-1.4-5.2-3.2v-2c0-1.8,1.4-5.2,3.2-5.2h2c1.8,0,5.2,1.4,5.2,3.2v2
			c0,1.8-1.4,5.2-3.2,5.2H102.4z"/>
		<path class="st273" d="M102,76c-1.7,0-5.2-1.4-5.2-3.2v-2.1c0-1.7,1.4-5.2,3.2-5.2h2.1c1.7,0,5.2,1.4,5.2,3.2v2.1
			c0,1.7-1.4,5.2-3.2,5.2H102z"/>
		<path class="st273" d="M101.6,76c-1.7,0-5.2-1.4-5.2-3.1v-2.1c0-1.7,1.4-5.2,3.1-5.2h2.1c1.7,0,5.2,1.4,5.2,3.1v2.1
			c0,1.7-1.4,5.2-3.1,5.2H101.6z"/>
		<path class="st273" d="M101.2,76c-1.7,0-5.2-1.4-5.2-3.1v-2.1c0-1.7,1.4-5.2,3.1-5.2h2.1c1.7,0,5.2,1.4,5.2,3.1v2.1
			c0,1.7-1.4,5.2-3.1,5.2H101.2z"/>
		<path class="st274" d="M100.8,76c-1.7,0-5.2-1.4-5.2-3.1v-2.2c0-1.7,1.4-5.2,3.1-5.2h2.2c1.7,0,5.2,1.4,5.2,3.1v2.2
			c0,1.7-1.4,5.2-3.1,5.2H100.8z"/>
		<path class="st274" d="M100.4,76c-1.7,0-5.2-1.4-5.2-3v-2.2c0-1.7,1.4-5.2,3-5.2h2.2c1.7,0,5.2,1.4,5.2,3v2.2c0,1.7-1.4,5.2-3,5.2
			H100.4z"/>
		<path class="st275" d="M100,76c-1.7,0-5.2-1.4-5.2-3v-2.2c0-1.7,1.4-5.2,3-5.2h2.2c1.7,0,5.2,1.4,5.2,3v2.2c0,1.7-1.4,5.2-3,5.2
			H100z"/>
		<path class="st275" d="M99.6,76c-1.6,0-5.2-1.3-5.2-3v-2.2c0-1.6,1.3-5.2,3-5.2h2.2c1.6,0,5.2,1.3,5.2,3v2.2c0,1.6-1.3,5.2-3,5.2
			H99.6z"/>
		<path class="st276" d="M99.2,76c-1.6,0-5.2-1.3-5.2-3v-2.3c0-1.6,1.3-5.2,3-5.2h2.3c1.6,0,5.2,1.3,5.2,3v2.3c0,1.6-1.3,5.2-3,5.2
			H99.2z"/>
		<path class="st276" d="M98.8,76c-1.6,0-5.2-1.3-5.2-2.9v-2.3c0-1.6,1.3-5.2,2.9-5.2h2.3c1.6,0,5.2,1.3,5.2,2.9v2.3
			c0,1.6-1.3,5.2-2.9,5.2H98.8z"/>
		<path class="st277" d="M98.4,76c-1.6,0-5.2-1.3-5.2-2.9v-2.3c0-1.6,1.3-5.2,2.9-5.2h2.3c1.6,0,5.2,1.3,5.2,2.9v2.3
			c0,1.6-1.3,5.2-2.9,5.2H98.4z"/>
		<path class="st277" d="M98,76c-1.6,0-5.2-1.3-5.2-2.9v-2.4c0-1.6,1.3-5.2,2.9-5.2H98c1.6,0,5.2,1.3,5.2,2.9v2.4
			c0,1.6-1.3,5.2-2.9,5.2H98z"/>
		<path class="st277" d="M97.6,76c-1.6,0-5.2-1.3-5.2-2.8v-2.4c0-1.6,1.3-5.2,2.8-5.2h2.4c1.6,0,5.2,1.3,5.2,2.8v2.4
			c0,1.6-1.3,5.2-2.8,5.2H97.6z"/>
		<path class="st278" d="M97.2,76c-1.5,0-5.2-1.3-5.2-2.8v-2.4c0-1.5,1.3-5.2,2.8-5.2h2.4c1.5,0,5.2,1.3,5.2,2.8v2.4
			c0,1.5-1.3,5.2-2.8,5.2H97.2z"/>
		<path class="st278" d="M96.8,76c-1.5,0-5.2-1.2-5.2-2.8v-2.5c0-1.5,1.2-5.2,2.8-5.2h2.5c1.5,0,5.2,1.2,5.2,2.8v2.5
			c0,1.5-1.2,5.2-2.8,5.2H96.8z"/>
		<path class="st279" d="M96.4,76c-1.5,0-5.2-1.2-5.2-2.7v-2.5c0-1.5,1.2-5.2,2.7-5.2h2.5c1.5,0,5.2,1.2,5.2,2.7v2.5
			c0,1.5-1.2,5.2-2.7,5.2H96.4z"/>
		<path class="st279" d="M96,76c-1.5,0-5.2-1.2-5.2-2.7v-2.5c0-1.5,1.2-5.2,2.7-5.2H96c1.5,0,5.2,1.2,5.2,2.7v2.5
			c0,1.5-1.2,5.2-2.7,5.2H96z"/>
		<path class="st280" d="M95.6,76c-1.5,0-5.2-1.2-5.2-2.7v-2.6c0-1.5,1.2-5.2,2.7-5.2h2.6c1.5,0,5.2,1.2,5.2,2.7v2.6
			c0,1.5-1.2,5.2-2.7,5.2H95.6z"/>
		<path class="st280" d="M95.2,76c-1.4,0-5.2-1.2-5.2-2.6v-2.6c0-1.4,1.2-5.2,2.6-5.2h2.6c1.4,0,5.2,1.2,5.2,2.6v2.6
			c0,1.4-1.2,5.2-2.6,5.2H95.2z"/>
		<path class="st281" d="M94.8,76c-1.4,0-5.2-1.2-5.2-2.6v-2.6c0-1.4,1.2-5.2,2.6-5.2h2.6c1.4,0,5.2,1.2,5.2,2.6v2.6
			c0,1.4-1.2,5.2-2.6,5.2H94.8z"/>
		<path class="st282" d="M94.4,76c-1.4,0-5.2-1.2-5.2-2.6v-2.7c0-1.4,1.2-5.2,2.6-5.2h2.7c1.4,0,5.2,1.2,5.2,2.6v2.7
			c0,1.4-1.2,5.2-2.6,5.2H94.4z"/>
		<path class="st282" d="M94,76c-1.4,0-5.2-1.1-5.2-2.5v-2.7c0-1.4,1.1-5.2,2.5-5.2H94c1.4,0,5.2,1.1,5.2,2.5v2.7
			c0,1.4-1.1,5.2-2.5,5.2H94z"/>
		<path class="st283" d="M93.6,76c-1.4,0-5.2-1.1-5.2-2.5v-2.7c0-1.4,1.1-5.2,2.5-5.2h2.7c1.4,0,5.2,1.1,5.2,2.5v2.7
			c0,1.4-1.1,5.2-2.5,5.2H93.6z"/>
		<path class="st283" d="M93.2,76c-1.4,0-5.2-1.1-5.2-2.5v-2.8c0-1.4,1.1-5.2,2.5-5.2h2.8c1.4,0,5.2,1.1,5.2,2.5v2.8
			c0,1.4-1.1,5.2-2.5,5.2H93.2z"/>
		<path class="st284" d="M92.8,76c-1.3,0-5.2-1.1-5.2-2.4v-2.8c0-1.3,1.1-5.2,2.4-5.2h2.8c1.3,0,5.2,1.1,5.2,2.4v2.8
			c0,1.3-1.1,5.2-2.4,5.2H92.8z"/>
		<path class="st284" d="M92.4,76c-1.3,0-5.2-1.1-5.2-2.4v-2.8c0-1.3,1.1-5.2,2.4-5.2h2.8c1.3,0,5.2,1.1,5.2,2.4v2.8
			c0,1.3-1.1,5.2-2.4,5.2H92.4z"/>
		<path class="st285" d="M92,76c-1.3,0-5.2-1.1-5.2-2.4v-2.9c0-1.3,1.1-5.2,2.4-5.2H92c1.3,0,5.2,1.1,5.2,2.4v2.9
			c0,1.3-1.1,5.2-2.4,5.2H92z"/>
		<path class="st285" d="M91.6,76c-1.3,0-5.2-1.1-5.2-2.3v-2.9c0-1.3,1.1-5.2,2.3-5.2h2.9c1.3,0,5.2,1.1,5.2,2.3v2.9
			c0,1.3-1.1,5.2-2.3,5.2H91.6z"/>
		<path class="st285" d="M91.2,76C90,76,86,75,86,73.7v-2.9c0-1.3,1-5.2,2.3-5.2h2.9c1.3,0,5.2,1,5.2,2.3v2.9c0,1.3-1,5.2-2.3,5.2
			H91.2z"/>
		<path class="st286" d="M90.8,76c-1.3,0-5.2-1-5.2-2.3v-3c0-1.3,1-5.2,2.3-5.2h3c1.3,0,5.2,1,5.2,2.3v3c0,1.3-1,5.2-2.3,5.2H90.8z"
			/>
		<path class="st287" d="M90.4,76c-1.2,0-5.2-1-5.2-2.2v-3c0-1.2,1-5.2,2.2-5.2h3c1.2,0,5.2,1,5.2,2.2v3c0,1.2-1,5.2-2.2,5.2H90.4z"
			/>
		<path class="st288" d="M90,76c-1.2,0-5.2-1-5.2-2.2v-3c0-1.2,1-5.2,2.2-5.2h3c1.2,0,5.2,1,5.2,2.2v3c0,1.2-1,5.2-2.2,5.2H90z"/>
		<path class="st288" d="M89.7,76c-1.2,0-5.2-1-5.2-2.2v-3c0-1.2,1-5.2,2.2-5.2h3c1.2,0,5.2,1,5.2,2.2v3c0,1.2-1,5.2-2.2,5.2H89.7z"
			/>
		<path class="st289" d="M89.3,76c-1.2,0-5.2-1-5.2-2.2v-3.1c0-1.2,1-5.2,2.2-5.2h3.1c1.2,0,5.2,1,5.2,2.2v3.1c0,1.2-1,5.2-2.2,5.2
			H89.3z"/>
		<path class="st289" d="M88.9,76c-1.2,0-5.2-1-5.2-2.1v-3.1c0-1.2,1-5.2,2.1-5.2h3.1c1.2,0,5.2,1,5.2,2.1v3.1c0,1.2-1,5.2-2.1,5.2
			H88.9z"/>
		<path class="st289" d="M88.5,76c-1.1,0-5.2-0.9-5.2-2.1v-3.1c0-1.1,0.9-5.2,2.1-5.2h3.1c1.1,0,5.2,0.9,5.2,2.1v3.1
			c0,1.1-0.9,5.2-2.1,5.2H88.5z"/>
		<path class="st290" d="M88.1,76c-1.1,0-5.2-0.9-5.2-2.1v-3.2c0-1.1,0.9-5.2,2.1-5.2h3.2c1.1,0,5.2,0.9,5.2,2.1v3.2
			c0,1.1-0.9,5.2-2.1,5.2H88.1z"/>
		<path class="st290" d="M87.7,76c-1.1,0-5.2-0.9-5.2-2v-3.2c0-1.1,0.9-5.2,2-5.2h3.2c1.1,0,5.2,0.9,5.2,2v3.2c0,1.1-0.9,5.2-2,5.2
			H87.7z"/>
		<path class="st291" d="M87.3,76c-1.1,0-5.2-0.9-5.2-2v-3.2c0-1.1,0.9-5.2,2-5.2h3.2c1.1,0,5.2,0.9,5.2,2v3.2c0,1.1-0.9,5.2-2,5.2
			H87.3z"/>
		<path class="st291" d="M86.9,76c-1.1,0-5.2-0.9-5.2-2v-3.3c0-1.1,0.9-5.2,2-5.2h3.3c1.1,0,5.2,0.9,5.2,2v3.3c0,1.1-0.9,5.2-2,5.2
			H86.9z"/>
		<path class="st291" d="M86.5,76c-1.1,0-5.2-0.9-5.2-1.9v-3.3c0-1.1,0.9-5.2,1.9-5.2h3.3c1.1,0,5.2,0.9,5.2,1.9v3.3
			c0,1.1-0.9,5.2-1.9,5.2H86.5z"/>
		<path class="st292" d="M86.1,76c-1,0-5.2-0.9-5.2-1.9v-3.3c0-1,0.9-5.2,1.9-5.2h3.3c1,0,5.2,0.9,5.2,1.9v3.3c0,1-0.9,5.2-1.9,5.2
			H86.1z"/>
		<path class="st292" d="M85.7,76c-1,0-5.2-0.8-5.2-1.9v-3.4c0-1,0.8-5.2,1.9-5.2h3.4c1,0,5.2,0.8,5.2,1.9v3.4c0,1-0.8,5.2-1.9,5.2
			H85.7z"/>
		<path class="st293" d="M85.3,76c-1,0-5.2-0.8-5.2-1.8v-3.4c0-1,0.8-5.2,1.8-5.2h3.4c1,0,5.2,0.8,5.2,1.8v3.4c0,1-0.8,5.2-1.8,5.2
			H85.3z"/>
		<path class="st293" d="M84.9,76c-1,0-5.2-0.8-5.2-1.8v-3.4c0-1,0.8-5.2,1.8-5.2h3.4c1,0,5.2,0.8,5.2,1.8v3.4c0,1-0.8,5.2-1.8,5.2
			H84.9z"/>
		<path class="st293" d="M84.5,76c-1,0-5.2-0.8-5.2-1.8v-3.5c0-1,0.8-5.2,1.8-5.2h3.5c1,0,5.2,0.8,5.2,1.8v3.5c0,1-0.8,5.2-1.8,5.2
			H84.5z"/>
		<path class="st294" d="M84.1,76c-1,0-5.2-0.8-5.2-1.7v-3.5c0-1,0.8-5.2,1.7-5.2h3.5c1,0,5.2,0.8,5.2,1.7v3.5c0,1-0.8,5.2-1.7,5.2
			H84.1z"/>
		<path class="st294" d="M83.7,76c-0.9,0-5.2-0.8-5.2-1.7v-3.5c0-0.9,0.8-5.2,1.7-5.2h3.5c0.9,0,5.2,0.8,5.2,1.7v3.5
			c0,0.9-0.8,5.2-1.7,5.2H83.7z"/>
		<path class="st295" d="M83.3,76c-0.9,0-5.2-0.8-5.2-1.7v-3.6c0-0.9,0.8-5.2,1.7-5.2h3.6c0.9,0,5.2,0.8,5.2,1.7v3.6
			c0,0.9-0.8,5.2-1.7,5.2H83.3z"/>
		<path class="st295" d="M82.9,76c-0.9,0-5.2-0.7-5.2-1.6v-3.6c0-0.9,0.7-5.2,1.6-5.2h3.6c0.9,0,5.2,0.7,5.2,1.6v3.6
			c0,0.9-0.7,5.2-1.6,5.2H82.9z"/>
		<path class="st295" d="M82.5,76c-0.9,0-5.2-0.7-5.2-1.6v-3.6c0-0.9,0.7-5.2,1.6-5.2h3.6c0.9,0,5.2,0.7,5.2,1.6v3.6
			c0,0.9-0.7,5.2-1.6,5.2H82.5z"/>
		<path class="st296" d="M82.1,76c-0.9,0-5.2-0.7-5.2-1.6v-3.7c0-0.9,0.7-5.2,1.6-5.2h3.7c0.9,0,5.2,0.7,5.2,1.6v3.7
			c0,0.9-0.7,5.2-1.6,5.2H82.1z"/>
		<path class="st296" d="M81.7,76c-0.8,0-5.2-0.7-5.2-1.5v-3.7c0-0.8,0.7-5.2,1.5-5.2h3.7c0.8,0,5.2,0.7,5.2,1.5v3.7
			c0,0.8-0.7,5.2-1.5,5.2H81.7z"/>
		<path class="st297" d="M81.3,76c-0.8,0-5.2-0.7-5.2-1.5v-3.7c0-0.8,0.7-5.2,1.5-5.2h3.7c0.8,0,5.2,0.7,5.2,1.5v3.7
			c0,0.8-0.7,5.2-1.5,5.2H81.3z"/>
		<path class="st297" d="M80.9,76c-0.8,0-5.2-0.7-5.2-1.5v-3.8c0-0.8,0.7-5.2,1.5-5.2h3.8c0.8,0,5.2,0.7,5.2,1.5v3.8
			c0,0.8-0.7,5.2-1.5,5.2H80.9z"/>
		<path class="st297" d="M80.5,76c-0.8,0-5.2-0.7-5.2-1.4v-3.8c0-0.8,0.7-5.2,1.4-5.2h3.8c0.8,0,5.2,0.7,5.2,1.4v3.8
			c0,0.8-0.7,5.2-1.4,5.2H80.5z"/>
		<path class="st298" d="M80.1,76c-0.8,0-5.2-0.6-5.2-1.4v-3.8c0-0.8,0.6-5.2,1.4-5.2h3.8c0.8,0,5.2,0.6,5.2,1.4v3.8
			c0,0.8-0.6,5.2-1.4,5.2H80.1z"/>
		<path class="st299" d="M79.7,76c-0.8,0-5.2-0.6-5.2-1.4v-3.9c0-0.8,0.6-5.2,1.4-5.2h3.9c0.8,0,5.2,0.6,5.2,1.4v3.9
			c0,0.8-0.6,5.2-1.4,5.2H79.7z"/>
		<path class="st300" d="M79.3,76c-0.7,0-5.2-0.6-5.2-1.3v-3.9c0-0.7,0.6-5.2,1.3-5.2h3.9c0.7,0,5.2,0.6,5.2,1.3v3.9
			c0,0.7-0.6,5.2-1.3,5.2H79.3z"/>
		<path class="st300" d="M78.9,76c-0.7,0-5.2-0.6-5.2-1.3v-3.9c0-0.7,0.6-5.2,1.3-5.2h3.9c0.7,0,5.2,0.6,5.2,1.3v3.9
			c0,0.7-0.6,5.2-1.3,5.2H78.9z"/>
		<path class="st300" d="M78.5,76c-0.7,0-5.2-0.6-5.2-1.3v-3.9c0-0.7,0.6-5.2,1.3-5.2h3.9c0.7,0,5.2,0.6,5.2,1.3v3.9
			c0,0.7-0.6,5.2-1.3,5.2H78.5z"/>
		<path class="st301" d="M78.1,76c-0.7,0-5.2-0.6-5.2-1.3v-4c0-0.7,0.6-5.2,1.3-5.2h4c0.7,0,5.2,0.6,5.2,1.3v4
			c0,0.7-0.6,5.2-1.3,5.2H78.1z"/>
		<path class="st301" d="M77.7,76c-0.7,0-5.2-0.5-5.2-1.2v-4c0-0.7,0.5-5.2,1.2-5.2h4c0.7,0,5.2,0.5,5.2,1.2v4
			c0,0.7-0.5,5.2-1.2,5.2H77.7z"/>
		<path class="st302" d="M77.3,76c-0.7,0-5.2-0.5-5.2-1.2v-4c0-0.7,0.5-5.2,1.2-5.2h4c0.7,0,5.2,0.5,5.2,1.2v4
			c0,0.7-0.5,5.2-1.2,5.2H77.3z"/>
		<path class="st302" d="M76.9,76c-0.6,0-5.2-0.5-5.2-1.2v-4.1c0-0.6,0.5-5.2,1.2-5.2h4.1c0.6,0,5.2,0.5,5.2,1.2v4.1
			c0,0.6-0.5,5.2-1.2,5.2H76.9z"/>
		<path class="st302" d="M76.5,76c-0.6,0-5.2-0.5-5.2-1.1v-4.1c0-0.6,0.5-5.2,1.1-5.2h4.1c0.6,0,5.2,0.5,5.2,1.1v4.1
			c0,0.6-0.5,5.2-1.1,5.2H76.5z"/>
		<path class="st303" d="M76.1,76c-0.6,0-5.2-0.5-5.2-1.1v-4.1c0-0.6,0.5-5.2,1.1-5.2h4.1c0.6,0,5.2,0.5,5.2,1.1v4.1
			c0,0.6-0.5,5.2-1.1,5.2H76.1z"/>
		<path class="st303" d="M75.7,76c-0.6,0-5.2-0.5-5.2-1.1v-4.2c0-0.6,0.5-5.2,1.1-5.2h4.2c0.6,0,5.2,0.5,5.2,1.1v4.2
			c0,0.6-0.5,5.2-1.1,5.2H75.7z"/>
		<path class="st304" d="M75.3,76c-0.6,0-5.2-0.5-5.2-1v-4.2c0-0.6,0.5-5.2,1-5.2h4.2c0.6,0,5.2,0.5,5.2,1v4.2c0,0.6-0.5,5.2-1,5.2
			H75.3z"/>
		<path class="st304" d="M75,76c-0.5,0-5.2-0.4-5.2-1v-4.2c0-0.5,0.4-5.2,1-5.2H75c0.5,0,5.2,0.4,5.2,1v4.2c0,0.5-0.4,5.2-1,5.2H75z
			"/>
		<path class="st304" d="M74.6,76c-0.5,0-5.2-0.4-5.2-1v-4.3c0-0.5,0.4-5.2,1-5.2h4.3c0.5,0,5.2,0.4,5.2,1v4.3c0,0.5-0.4,5.2-1,5.2
			H74.6z"/>
		<path class="st305" d="M74.2,76c-0.5,0-5.2-0.4-5.2-0.9v-4.3c0-0.5,0.4-5.2,0.9-5.2h4.3c0.5,0,5.2,0.4,5.2,0.9v4.3
			c0,0.5-0.4,5.2-0.9,5.2H74.2z"/>
		<path class="st305" d="M73.8,76c-0.5,0-5.2-0.4-5.2-0.9v-4.3c0-0.5,0.4-5.2,0.9-5.2h4.3c0.5,0,5.2,0.4,5.2,0.9v4.3
			c0,0.5-0.4,5.2-0.9,5.2H73.8z"/>
		<path class="st305" d="M73.4,76c-0.5,0-5.2-0.4-5.2-0.9v-4.4c0-0.5,0.4-5.2,0.9-5.2h4.4c0.5,0,5.2,0.4,5.2,0.9v4.4
			c0,0.5-0.4,5.2-0.9,5.2H73.4z"/>
		<path class="st306" d="M73,76c-0.5,0-5.2-0.4-5.2-0.8v-4.4c0-0.5,0.4-5.2,0.8-5.2H73c0.5,0,5.2,0.4,5.2,0.8v4.4
			c0,0.5-0.4,5.2-0.8,5.2H73z"/>
		<path class="st306" d="M72.6,76c-0.4,0-5.2-0.4-5.2-0.8v-4.4c0-0.4,0.4-5.2,0.8-5.2h4.4c0.4,0,5.2,0.4,5.2,0.8v4.4
			c0,0.4-0.4,5.2-0.8,5.2H72.6z"/>
		<path class="st307" d="M72.2,76c-0.4,0-5.2-0.3-5.2-0.8v-4.5c0-0.4,0.3-5.2,0.8-5.2h4.5c0.4,0,5.2,0.3,5.2,0.8v4.5
			c0,0.4-0.3,5.2-0.8,5.2H72.2z"/>
		<path class="st307" d="M71.8,76c-0.4,0-5.2-0.3-5.2-0.7v-4.5c0-0.4,0.3-5.2,0.7-5.2h4.5c0.4,0,5.2,0.3,5.2,0.7v4.5
			c0,0.4-0.3,5.2-0.7,5.2H71.8z"/>
		<path class="st307" d="M71.4,76c-0.4,0-5.2-0.3-5.2-0.7v-4.5c0-0.4,0.3-5.2,0.7-5.2h4.5c0.4,0,5.2,0.3,5.2,0.7v4.5
			c0,0.4-0.3,5.2-0.7,5.2H71.4z"/>
		<path class="st308" d="M71,76c-0.4,0-5.2-0.3-5.2-0.7v-4.6c0-0.4,0.3-5.2,0.7-5.2H71c0.4,0,5.2,0.3,5.2,0.7v4.6
			c0,0.4-0.3,5.2-0.7,5.2H71z"/>
		<path class="st308" d="M70.6,76c-0.4,0-5.2-0.3-5.2-0.6v-4.6c0-0.4,0.3-5.2,0.6-5.2h4.6c0.4,0,5.2,0.3,5.2,0.6v4.6
			c0,0.4-0.3,5.2-0.6,5.2H70.6z"/>
		<path class="st308" d="M70.2,76c-0.3,0-5.2-0.3-5.2-0.6v-4.6c0-0.3,0.3-5.2,0.6-5.2h4.6c0.3,0,5.2,0.3,5.2,0.6v4.6
			c0,0.3-0.3,5.2-0.6,5.2H70.2z"/>
		<path class="st309" d="M69.8,76c-0.3,0-5.2-0.3-5.2-0.6v-4.7c0-0.3,0.3-5.2,0.6-5.2h4.7c0.3,0,5.2,0.3,5.2,0.6v4.7
			c0,0.3-0.3,5.2-0.6,5.2H69.8z"/>
		<path class="st309" d="M69.4,76c-0.3,0-5.2-0.2-5.2-0.5v-4.7c0-0.3,0.2-5.2,0.5-5.2h4.7c0.3,0,5.2,0.2,5.2,0.5v4.7
			c0,0.3-0.2,5.2-0.5,5.2H69.4z"/>
		<path class="st309" d="M69,76c-0.3,0-5.2-0.2-5.2-0.5v-4.7c0-0.3,0.2-5.2,0.5-5.2H69c0.3,0,5.2,0.2,5.2,0.5v4.7
			c0,0.3-0.2,5.2-0.5,5.2H69z"/>
		<path class="st310" d="M68.6,76c-0.3,0-5.2-0.2-5.2-0.5v-4.8c0-0.3,0.2-5.2,0.5-5.2h4.8c0.3,0,5.2,0.2,5.2,0.5v4.8
			c0,0.3-0.2,5.2-0.5,5.2H68.6z"/>
		<path class="st310" d="M68.2,76c-0.2,0-5.2-0.2-5.2-0.4v-4.8c0-0.2,0.2-5.2,0.4-5.2h4.8c0.2,0,5.2,0.2,5.2,0.4v4.8
			c0,0.2-0.2,5.2-0.4,5.2H68.2z"/>
		<path class="st311" d="M67.8,76c-0.2,0-5.2-0.2-5.2-0.4v-4.8c0-0.2,0.2-5.2,0.4-5.2h4.8c0.2,0,5.2,0.2,5.2,0.4v4.8
			c0,0.2-0.2,5.2-0.4,5.2H67.8z"/>
		<path class="st311" d="M67.4,76c-0.2,0-5.2-0.2-5.2-0.4v-4.8c0-0.2,0.2-5.2,0.4-5.2h4.8c0.2,0,5.2,0.2,5.2,0.4v4.8
			c0,0.2-0.2,5.2-0.4,5.2H67.4z"/>
		<path class="st311" d="M67,76c-0.2,0-5.2-0.2-5.2-0.4v-4.9c0-0.2,0.2-5.2,0.4-5.2H67c0.2,0,5.2,0.2,5.2,0.4v4.9
			c0,0.2-0.2,5.2-0.4,5.2H67z"/>
		<path class="st312" d="M66.6,76c-0.2,0-5.2-0.1-5.2-0.3v-4.9c0-0.2,0.1-5.2,0.3-5.2h4.9c0.2,0,5.2,0.1,5.2,0.3v4.9
			c0,0.2-0.1,5.2-0.3,5.2H66.6z"/>
		<path class="st312" d="M66.2,76c-0.2,0-5.2-0.1-5.2-0.3v-4.9c0-0.2,0.1-5.2,0.3-5.2h4.9c0.2,0,5.2,0.1,5.2,0.3v4.9
			c0,0.2-0.1,5.2-0.3,5.2H66.2z"/>
		<path class="st312" d="M65.8,76c-0.1,0-5.2-0.1-5.2-0.3v-5c0-0.1,0.1-5.2,0.3-5.2h5c0.1,0,5.2,0.1,5.2,0.3v5
			c0,0.1-0.1,5.2-0.3,5.2H65.8z"/>
		<path class="st313" d="M65.4,76c-0.1,0-5.2-0.1-5.2-0.2v-5c0-0.1,0.1-5.2,0.2-5.2h5c0.1,0,5.2,0.1,5.2,0.2v5
			c0,0.1-0.1,5.2-0.2,5.2H65.4z"/>
		<path class="st313" d="M65,76c-0.1,0-5.2-0.1-5.2-0.2v-5c0-0.1,0.1-5.2,0.2-5.2h5c0.1,0,5.2,0.1,5.2,0.2v5c0,0.1-0.1,5.2-0.2,5.2
			H65z"/>
		<path class="st313" d="M64.6,76c-0.1,0-5.2-0.1-5.2-0.2v-5.1c0-0.1,0.1-5.2,0.2-5.2h5.1c0.1,0,5.2,0.1,5.2,0.2v5.1
			c0,0.1-0.1,5.2-0.2,5.2H64.6z"/>
		<path class="st1" d="M64.2,76c-0.1,0-5.2-0.1-5.2-0.1v-5.1c0-0.1,0.1-5.2,0.1-5.2h5.1c0.1,0,5.2,0.1,5.2,0.1v5.1
			c0,0.1-0.1,5.2-0.1,5.2H64.2z"/>
		<path class="st1" d="M63.8,76c-0.1,0-5.2,0-5.2-0.1v-5.1c0-0.1,0-5.2,0.1-5.2h5.1c0.1,0,5.2,0,5.2,0.1v5.1c0,0.1,0,5.2-0.1,5.2
			H63.8z"/>
		<path class="st1" d="M63.4,76c0,0-5.2,0-5.2-0.1v-5.2c0,0,0-5.2,0.1-5.2h5.2c0,0,5.2,0,5.2,0.1v5.2c0,0,0,5.2-0.1,5.2H63.4z"/>
		<path class="st140" d="M63,76c0,0-5.2,0-5.2,0v-5.2c0,0,0-5.2,0-5.2H63c0,0,5.2,0,5.2,0v5.2c0,0,0,5.2,0,5.2H63z"/>
		<polygon class="st1" points="57.4,65.5 62.6,65.5 67.9,65.5 67.9,70.8 67.9,76 62.6,76 57.4,76 57.4,70.8 		"/>
	</g>
</g>
</svg>
